<svg width="33" height="33" viewBox="0 0 33 33" fill="none" xmlns="http://www.w3.org/2000/svg">
<g clip-path="url(#clip0_12_5571)">
<path d="M16.5 11.2333V5.2016" stroke="black" stroke-width="2" stroke-miterlimit="10" stroke-linecap="round" stroke-linejoin="round"/>
<path d="M14.6573 6.811C15.675 6.811 16.5 5.98602 16.5 4.96837C16.5 3.95071 15.675 3.12573 14.6573 3.12573C13.6397 3.12573 12.8147 3.95071 12.8147 4.96837C12.8147 5.98602 13.6397 6.811 14.6573 6.811Z" stroke="black" stroke-width="2" stroke-miterlimit="10" stroke-linecap="round" stroke-linejoin="round"/>
<path d="M18.3426 6.811C19.3603 6.811 20.1853 5.98602 20.1853 4.96837C20.1853 3.95071 19.3603 3.12573 18.3426 3.12573C17.325 3.12573 16.5 3.95071 16.5 4.96837C16.5 5.98602 17.325 6.811 18.3426 6.811Z" stroke="black" stroke-width="2" stroke-miterlimit="10" stroke-linecap="round" stroke-linejoin="round"/>
<path d="M6.01603 26.8982H3.54014C2.5224 26.8982 1.69751 26.0733 1.69751 25.0555V21.0018C1.69751 19.984 2.5224 19.1591 3.54014 19.1591H6.15853H26.8415H29.4599C30.4776 19.1591 31.3025 19.984 31.3025 21.0018V25.0555C31.3025 26.0733 30.4776 26.8982 29.4599 26.8982H26.984" stroke="black" stroke-width="2" stroke-miterlimit="10" stroke-linecap="round" stroke-linejoin="round"/>
<path d="M21.4561 26.8982H11.5439" stroke="black" stroke-width="2" stroke-miterlimit="10" stroke-linecap="round" stroke-linejoin="round"/>
<path d="M8.77982 29.6621C10.3063 29.6621 11.5438 28.4247 11.5438 26.8982C11.5438 25.3717 10.3063 24.1342 8.77982 24.1342C7.25333 24.1342 6.01587 25.3717 6.01587 26.8982C6.01587 28.4247 7.25333 29.6621 8.77982 29.6621Z" stroke="black" stroke-width="2" stroke-miterlimit="10" stroke-linecap="round" stroke-linejoin="round"/>
<path d="M24.2202 29.6621C25.7467 29.6621 26.9842 28.4247 26.9842 26.8982C26.9842 25.3717 25.7467 24.1342 24.2202 24.1342C22.6938 24.1342 21.4563 25.3717 21.4563 26.8982C21.4563 28.4247 22.6938 29.6621 24.2202 29.6621Z" stroke="black" stroke-width="2" stroke-miterlimit="10" stroke-linecap="round" stroke-linejoin="round"/>
<path d="M26.8414 19.1591H6.15857C6.15857 14.7153 9.76098 11.1129 14.2047 11.1129H18.7953C23.239 11.1129 26.8414 14.7153 26.8414 19.1591Z" stroke="black" stroke-width="2" stroke-miterlimit="10" stroke-linecap="round" stroke-linejoin="round"/>
<path d="M16.5 7.76984V18.9128" stroke="black" stroke-width="2" stroke-miterlimit="10" stroke-linecap="round" stroke-linejoin="round"/>
</g>
<defs>
<clipPath id="clip0_12_5571">
<rect width="32" height="32" fill="white" transform="translate(0.5 0.393921)"/>
</clipPath>
</defs>
</svg>
