<svg width="33" height="33" viewBox="0 0 33 33" fill="none" xmlns="http://www.w3.org/2000/svg">
<path d="M30.01 2.07111C29.5456 2.07111 29.1691 2.44759 29.1691 2.91197V3.75284H3.83091V2.91197C3.83091 2.44759 3.45442 2.07111 2.99004 2.07111C2.52565 2.07111 2.14917 2.44759 2.14917 2.91197V6.27545C2.14917 6.73983 2.52565 7.11632 2.99004 7.11632C3.45442 7.11632 3.83091 6.73983 3.83091 6.27545V5.43458H12.2957V7.29884L7.99882 8.36086C4.66393 9.19456 2.14917 12.1974 2.14917 15.8529V28.1941C2.14917 28.6585 2.52565 29.035 2.99004 29.035H5.51265V29.8758C5.51265 30.3402 5.88913 30.7167 6.35351 30.7167H11.4548C11.9192 30.7167 12.2957 30.3402 12.2957 29.8758V29.035H13.9774V29.8758C13.9774 30.3402 14.3539 30.7167 14.8183 30.7167H19.8635C20.3279 30.7167 20.7043 30.3402 20.7043 29.8758V29.035H23.227C23.6913 29.035 24.0678 28.6585 24.0678 28.1941V22.252H30.01C30.4743 22.252 30.8508 21.8755 30.8508 21.4111V10.952C30.8508 9.7923 30.0651 8.78595 28.9381 8.5042L24.0678 7.29901V5.43458H29.1691V6.27545C29.1691 6.73983 29.5456 7.11632 30.01 7.11632C30.4743 7.11632 30.8508 6.73983 30.8508 6.27545V2.91197C30.8508 2.44759 30.4743 2.07111 30.01 2.07111ZM10.6139 29.035H7.19438V18.0476C7.19438 17.5832 6.8179 17.2067 6.35351 17.2067C5.88913 17.2067 5.51265 17.5832 5.51265 18.0476V27.3532H3.83091V15.8529C3.83091 13.0039 5.78868 10.6469 8.40451 9.99293L10.6139 9.44687V29.035ZM13.9774 27.3532H12.2957V13.8433H13.9774V27.3532ZM13.9774 12.1615H12.2957V9.0312L13.1353 8.82368L13.9774 9.03417V12.1615ZM13.9774 7.30064V5.43458H22.3861V7.30064L18.1817 8.35172L13.9774 7.30064ZM22.3861 27.3532H20.7043V18.0476C20.7043 17.5832 20.3279 17.2067 19.8635 17.2067C19.3991 17.2067 19.0226 17.5832 19.0226 18.0476V29.035H15.6591V9.45461L17.8103 9.99243C20.419 10.6446 22.3861 12.9934 22.3861 15.8529V27.3532ZM27.8178 9.95947L28.5322 10.1363C28.9071 10.23 29.1691 10.5655 29.1691 10.952V20.5702H24.0678V15.8529C24.0678 14.5415 23.7426 13.2801 23.1313 12.1602C23.1632 12.1607 23.195 12.1615 23.227 12.1615C25.0293 12.1615 26.705 11.348 27.8178 9.95947ZM25.934 9.49329C25.1865 10.1235 24.2344 10.4798 23.227 10.4798C22.6286 10.4798 22.0528 10.3575 21.5136 10.1162C21.2496 9.87835 20.9703 9.65967 20.6775 9.46128L23.228 8.82368L25.934 9.49329Z" fill="black"/>
</svg>
