<svg width="33" height="33" viewBox="0 0 33 33" fill="none" xmlns="http://www.w3.org/2000/svg">
<g clip-path="url(#clip0_74_1345)">
<path d="M27.1076 24.94L27.1061 24.9386C26.8701 24.7026 26.5114 24.7026 26.2755 24.9386C25.1933 26.0208 23.5049 26.0812 22.314 25.1601L22.5487 21.4973L27.3007 22.8893C27.301 22.8894 27.3014 22.8895 27.3017 22.8896C28.2923 23.2018 29.3781 22.6274 29.739 21.5962L29.7391 21.5962L29.7404 21.5919C30.0521 20.5528 29.4294 19.4651 28.444 19.1539L28.444 19.1539L28.4421 19.1534C25.9543 18.4216 16.2161 15.5632 12.5899 14.5052L13.5921 11.4031L13.5921 11.4031L13.5927 11.4011C13.9032 10.3662 13.3351 9.27565 12.3455 8.96317L12.3455 8.96316L12.3441 8.96274C11.3124 8.65323 10.2192 9.16818 9.906 10.2106C9.90593 10.2108 9.90586 10.2111 9.90578 10.2113L8.33085 15.1822L8.33084 15.1822L8.3304 15.1836C8.01953 16.2199 8.58943 17.3104 9.62821 17.622L9.62868 17.6221L14.228 18.9777L13.7003 25.8368C13.0234 25.7704 12.3909 25.4879 11.843 24.9862C11.607 24.7518 11.2494 24.7524 11.0139 24.9878C9.8214 26.1803 7.91664 26.1782 6.77524 24.9893L6.77526 24.9893L6.77381 24.9878C6.53784 24.7518 6.17914 24.7518 5.94316 24.9878C4.75063 26.1803 2.84587 26.1782 1.70447 24.9893L1.70449 24.9893L1.70304 24.9878C1.46707 24.7518 1.10837 24.7518 0.872392 24.9878C0.636417 25.2238 0.636416 25.5825 0.872392 25.8185C2.36624 27.3123 4.74452 27.4301 6.35895 26.1706C7.84818 27.3157 9.9402 27.3155 11.4293 26.1702C12.9201 27.3146 15.0569 27.2676 16.4997 26.17C17.989 27.3156 20.0815 27.3157 21.5708 26.1702C23.0602 27.3158 25.1527 27.3156 26.642 26.1699C28.3017 27.4294 30.6327 27.3134 32.1277 25.8185C32.3636 25.5825 32.3636 25.2238 32.1277 24.9878C32.0184 24.8786 31.8878 24.8024 31.748 24.7868C31.6044 24.7709 31.4642 24.8206 31.3462 24.9386C30.1537 26.1311 28.2489 26.129 27.1075 24.94L27.1076 24.94ZM16.9168 24.94L16.9168 24.94L16.9154 24.9386C16.6794 24.7026 16.3207 24.7026 16.0847 24.9386C15.7389 25.2844 15.3153 25.5516 14.8859 25.7052L15.3198 18.714L15.32 18.714V18.7078C15.32 18.4239 15.1489 18.1819 14.9018 18.119L9.88385 16.6431C9.48518 16.5092 9.23075 16.0687 9.35799 15.6871L9.3586 15.6851L10.9338 10.615C10.9338 10.6149 10.9339 10.6148 10.9339 10.6147C11.0119 10.3697 11.1592 10.2204 11.3274 10.1442C11.4978 10.0671 11.6967 10.062 11.8789 10.12C12.0611 10.1779 12.2212 10.2972 12.3166 10.4617C12.4109 10.6244 12.4461 10.8385 12.3675 11.097C12.3675 11.097 12.3674 11.0971 12.3674 11.0971L11.2352 14.7892L11.2352 14.7892L11.2346 14.7911C11.1785 14.9874 11.2036 15.1462 11.3086 15.2754C11.4056 15.3948 11.562 15.4765 11.7345 15.5504L11.7342 15.5511L11.7454 15.5544C12.851 15.8826 14.8653 16.4774 17.1272 17.1453C21.3117 18.3809 26.3439 19.8667 28.0389 20.3784C28.4378 20.5122 28.6924 20.9528 28.5652 21.3346L28.5651 21.3346L28.5642 21.3375C28.4322 21.7775 27.9964 21.9914 27.6086 21.8621L27.6086 21.8621L27.6054 21.8611L22.1423 20.237C21.959 20.1765 21.7785 20.2241 21.6407 20.3257C21.5035 20.4268 21.4027 20.5848 21.3737 20.759L21.3732 20.7589L21.3726 20.7686L21.0798 25.062C19.9345 26.1303 18.0502 26.1206 16.9168 24.94ZM25.1387 29.0266L25.1387 29.0266L25.1369 29.0247C24.9009 28.7888 24.5422 28.7888 24.3062 29.0247C23.4102 29.9207 21.9488 29.9208 21.0525 28.9773L21.0525 28.9773L21.0507 28.9755C20.8148 28.7395 20.4561 28.7395 20.2201 28.9755C19.3241 29.8715 17.8627 29.8716 16.9664 28.9281L16.9664 28.9281L16.9646 28.9263C16.7286 28.6903 16.3699 28.6903 16.1339 28.9263C15.2379 29.8223 13.7765 29.8223 12.8802 28.8789L12.8802 28.8789L12.8784 28.877C12.6425 28.6411 12.2838 28.6411 12.0478 28.877C11.1518 29.773 9.69035 29.7731 8.79406 28.8297L8.79409 28.8296L8.79227 28.8278C8.5563 28.5918 8.1976 28.5918 7.96162 28.8278C7.06562 29.7238 5.60419 29.7239 4.70791 28.7804L4.70793 28.7804L4.70612 28.7786C4.47015 28.5426 4.11144 28.5426 3.87547 28.7786C3.63949 29.0146 3.63949 29.3733 3.87547 29.6092C5.12154 30.8553 7.05635 30.9747 8.37606 30.0088C9.57072 30.9097 11.2671 30.9104 12.4615 30.0575C13.6566 30.9592 15.3541 30.9598 16.5488 30.1059C17.7874 31.0076 19.4403 31.0101 20.635 30.1551C21.8733 31.0567 23.5259 31.0594 24.7204 30.2048C26.0856 31.2198 28.0226 31.105 29.223 29.9046C29.459 29.6686 29.459 29.3099 29.223 29.074L29.218 29.0689L29.2123 29.0647C28.9938 28.9008 28.6385 28.8279 28.3924 29.074C27.4964 29.97 26.035 29.97 25.1387 29.0266Z" fill="black" stroke="black" stroke-width="0.2"/>
<path d="M19.9954 15.3124C21.8712 15.3124 23.4431 13.7916 23.4431 11.8647C23.4431 9.93868 21.9214 8.41699 19.9954 8.41699C18.0694 8.41699 16.5477 9.93868 16.5477 11.8647C16.5477 13.7907 18.0694 15.3124 19.9954 15.3124ZM19.9954 9.65084C21.2215 9.65084 22.2585 10.6413 22.2585 11.9139C22.2585 13.1879 21.2694 14.177 19.9954 14.177C18.7214 14.177 17.7323 13.1879 17.7323 11.9139C17.7323 10.6399 18.7214 9.65084 19.9954 9.65084ZM12.3154 7.97699C13.9953 7.97699 15.3693 6.60299 15.3693 4.92315C15.3693 3.2433 13.9953 1.8693 12.3154 1.8693C10.6356 1.8693 9.26157 3.2433 9.26157 4.92315C9.26157 6.60299 10.6356 7.97699 12.3154 7.97699ZM12.3154 3.05391C13.3433 3.05391 14.1846 3.8953 14.1846 4.92315C14.1846 5.95099 13.3433 6.79238 12.3154 6.79238C11.2876 6.79238 10.4462 5.95099 10.4462 4.92315C10.4462 3.8953 11.2876 3.05391 12.3154 3.05391Z" fill="black" stroke="black" stroke-width="0.2"/>
</g>
<defs>
<clipPath id="clip0_74_1345">
<rect width="32" height="32" fill="white" transform="translate(0.5 0.393921)"/>
</clipPath>
</defs>
</svg>
