<svg width="33" height="33" viewBox="0 0 33 33" fill="none" xmlns="http://www.w3.org/2000/svg">
<g clip-path="url(#clip0_76_1375)">
<path d="M21.214 10.5145L21.2142 10.5148C22.6542 12.6536 23.6493 14.8923 24.0006 16.8755C24.3897 19.0225 23.9946 20.6691 22.8265 21.4628C22.5686 21.6409 22.2778 21.7657 21.9711 21.8299M21.214 10.5145L21.9506 21.732M21.214 10.5145C19.6517 8.21609 17.8243 6.45138 16.1083 5.44786C14.3985 4.44795 12.7675 4.18778 11.6295 4.96729L11.6295 4.96728L11.6284 4.96803C11.3792 5.14354 11.1626 5.36135 10.9885 5.61158L10.9706 5.63733V5.64661L10.966 5.65618L10.9241 5.74247C10.8873 5.818 10.8332 5.92835 10.7643 6.0686C10.6266 6.34906 10.4297 6.74881 10.1935 7.22805C9.72113 8.18654 9.09126 9.46289 8.46137 10.7387C7.83148 12.0145 7.2016 13.2898 6.72918 14.2461L6.15835 15.4016L5.99841 15.7252L5.95628 15.8105L5.95352 15.8161M21.214 10.5145L5.95352 15.8161M21.9711 21.8299L21.9506 21.732M21.9711 21.8299L21.9733 21.8294C21.9758 21.8288 21.9831 21.8266 21.9877 21.8248L21.9506 21.732M21.9711 21.8299L21.9678 21.8306L21.962 21.8315L21.9534 21.8325L21.9301 21.8349C21.92 21.8359 21.9077 21.8371 21.8932 21.8384C21.8798 21.8396 21.8646 21.841 21.8475 21.8425C21.7764 21.8488 21.6734 21.8575 21.543 21.8685C21.2822 21.8903 20.9116 21.9207 20.4681 21.9568C19.5808 22.029 18.4012 22.124 17.2228 22.2185C16.0443 22.313 14.8669 22.4071 13.9842 22.4775L12.9177 22.5625L12.6845 22.5811M21.9506 21.732C21.9177 21.7451 13.6916 22.4006 12.6199 22.4859L12.6845 22.5811M12.6845 22.5811L16.5686 28.3113C16.7634 28.5972 16.8995 28.919 16.9692 29.2578C17.0387 29.5962 17.0406 29.945 16.9748 30.284C16.9193 30.6256 16.793 30.9518 16.604 31.2417C16.4147 31.532 16.1666 31.7794 15.8758 31.968L15.8734 31.9695L15.8734 31.9695C15.062 32.4639 14.3193 32.5044 13.6919 32.3092C13.0685 32.1153 12.5678 31.6918 12.2272 31.2719L12.2218 31.2653L12.2221 31.2651L7.75859 24.6896C6.88194 25.2461 5.82472 25.4481 4.80253 25.2519C3.74777 25.0494 2.81534 24.4393 2.20749 23.5539L2.20721 23.5534L2.08063 23.3671C1.7799 22.9245 1.56932 22.427 1.46091 21.903C1.35251 21.379 1.3484 20.8387 1.44883 20.3131C1.54927 19.7875 1.75227 19.2869 2.04624 18.8398C2.34021 18.3926 2.71939 18.0078 3.16212 17.7073L3.1622 17.7072L5.95352 15.8161M12.6845 22.5811L12.6189 22.5863L12.5698 22.5902L16.486 28.3676L5.95352 15.8161M3.39598 22.7484L3.39596 22.7483L3.26936 22.562C3.07435 22.2749 2.93788 21.9521 2.86776 21.6122C2.79763 21.2723 2.79523 20.9219 2.86069 20.5811C2.92615 20.2403 3.05818 19.9157 3.24923 19.626C3.44029 19.3363 3.6866 19.087 3.97409 18.8926L3.97431 18.8925L6.32145 17.296L9.41613 21.8532L7.06886 23.4497C6.78171 23.645 6.45887 23.7818 6.11882 23.8522C5.77877 23.9226 5.42818 23.9254 5.08707 23.8602C4.74597 23.7951 4.42105 23.6634 4.13088 23.4726C3.84071 23.2818 3.59099 23.0357 3.39598 22.7484ZM13.3969 30.4566L13.3968 30.4565L8.94837 23.9036L10.6549 22.7438L11.0487 22.712L15.3902 29.1161C15.3903 29.1162 15.3903 29.1163 15.3904 29.1163C15.5677 29.3803 15.6331 29.7038 15.5723 30.0159C15.5114 30.328 15.3293 30.6033 15.0658 30.7813C14.8013 30.9589 14.4771 31.0245 14.1643 30.9636C13.8515 30.9028 13.5756 30.7204 13.3969 30.4566ZM11.9007 6.94063L11.9011 6.93957C11.9882 6.65806 12.162 6.41128 12.3978 6.23447C12.6333 6.05782 12.9186 5.96004 13.213 5.95507C14.014 5.95538 15.1183 6.41649 16.3274 7.32703C17.5333 8.23522 18.8315 9.58155 20.0182 11.3301L20.0182 11.3302C21.3574 13.3004 22.326 15.3536 22.5901 17.14L22.5902 17.1404C22.8493 18.8495 22.4511 19.6751 22.0192 20.0768C21.801 20.2797 21.5675 20.3811 21.3884 20.4319C21.2989 20.4572 21.2234 20.4698 21.1709 20.476C21.1447 20.4792 21.1242 20.4807 21.1108 20.4814L21.096 20.482L21.0951 20.482C20.284 20.4281 19.2006 19.9408 18.0254 19.0331C16.851 18.126 15.5947 16.8066 14.4413 15.107C13.2877 13.4074 12.5252 11.7554 12.1153 10.3311C11.7044 8.90353 11.6511 7.71663 11.9007 6.94063ZM17.953 20.7312L10.769 21.2972L7.33892 16.2452L10.5137 9.77168C10.8842 11.633 11.8156 13.7952 13.256 15.9157C14.6965 18.0362 16.3619 19.6997 17.953 20.7312Z" fill="black" stroke="black" stroke-width="0.2"/>
<path d="M14.175 11.1354L14.1753 11.1352C14.5483 10.8794 14.9685 10.7006 15.4115 10.6091C15.8512 10.5184 16.3045 10.5155 16.7453 10.6008H16.7602H16.7696L16.7789 10.6025C17.4474 10.7296 18.063 11.0522 18.548 11.5295C19.0329 12.0068 19.3653 12.6173 19.503 13.2836C19.6407 13.95 19.5775 14.6422 19.3215 15.2726C19.0654 15.903 18.628 16.4433 18.0647 16.8249C17.9445 16.9072 17.8018 16.9501 17.6561 16.9476M14.175 11.1354L17.6569 16.8476M14.175 11.1354C14.0974 11.1891 14.0312 11.2575 13.9801 11.3367C13.929 11.416 13.8941 11.5045 13.8772 11.5973C13.8603 11.69 13.8618 11.7852 13.8817 11.8773C13.9016 11.9695 13.9395 12.0568 13.9932 12.1344C14.0468 12.2119 14.1152 12.2781 14.1944 12.3292C14.2737 12.3803 14.3622 12.4153 14.455 12.4321C14.5477 12.449 14.6429 12.4475 14.7351 12.4276L14.7139 12.3298L14.7351 12.4276C14.827 12.4077 14.9142 12.37 14.9917 12.3165M14.175 11.1354L14.9917 12.3165M17.6561 16.9476C17.6558 16.9476 17.6554 16.9476 17.6551 16.9476L17.6569 16.8476M17.6561 16.9476C17.6565 16.9476 17.6569 16.9476 17.6572 16.9476L17.6569 16.8476M17.6561 16.9476C17.5038 16.9478 17.3553 16.8994 17.2324 16.8094L17.2915 16.7287M17.6569 16.8476C17.5255 16.848 17.3975 16.8063 17.2915 16.7287M17.2915 16.7287L17.2324 16.8094C17.1092 16.7192 17.018 16.5919 16.9723 16.4462C16.9266 16.3004 16.9288 16.1439 16.9785 15.9995C17.0282 15.855 17.1228 15.7303 17.2485 15.6435L17.2491 15.6431C17.4675 15.4948 17.6546 15.305 17.7997 15.0845C17.9447 14.8639 18.0449 14.617 18.0945 14.3577C18.1441 14.0984 18.1422 13.8319 18.0888 13.5734C18.0354 13.3149 17.9317 13.0694 17.7834 12.851C17.6352 12.6326 17.4454 12.4455 17.2248 12.3004C17.0043 12.1554 16.7573 12.0552 16.498 12.0056C16.2388 11.956 15.9723 11.9579 15.7137 12.0113C15.4553 12.0646 15.21 12.1683 14.9917 12.3165M17.2915 16.7287L14.9917 12.3165M21.8804 6.39108L21.8804 6.39055C21.6918 6.37096 21.5187 6.27728 21.3991 6.13011C21.2796 5.98296 21.2233 5.79437 21.2427 5.60577L21.8804 6.39108ZM21.8804 6.39108H21.8908H21.9506H21.9506C22.1275 6.39101 22.2982 6.32537 22.4295 6.20683C22.5609 6.0883 22.6437 5.92528 22.6619 5.74928L22.6619 5.74923L23.1365 1.13699C23.1488 1.04264 23.1421 0.946777 23.1169 0.855019C23.0915 0.762773 23.048 0.676549 22.9887 0.601447C22.9294 0.526344 22.8557 0.46389 22.7719 0.417781C22.6881 0.37167 22.5959 0.342841 22.5007 0.332997C22.4055 0.323153 22.3094 0.332495 22.2179 0.36047C22.1264 0.388445 22.0415 0.434485 21.9681 0.495866C21.8947 0.557247 21.8344 0.632722 21.7907 0.717825C21.7472 0.802506 21.7211 0.895008 21.7138 0.98991L21.2427 5.60567L21.8804 6.39108ZM28.9358 5.08212L28.9357 5.08221L25.0556 9.10779L25.0533 9.20776C25.054 9.20778 25.0548 9.20779 25.0555 9.20781C25.199 9.21068 25.3402 9.17093 25.4611 9.09358L25.4621 9.09293L29.7487 6.27974L29.7487 6.27979L29.7514 6.27792C29.906 6.16916 30.0112 6.00363 30.0442 5.8175C30.0771 5.63173 30.0352 5.44051 29.9278 5.28546C29.8228 5.12773 29.6598 5.0178 29.4742 4.97961C29.2882 4.94135 29.0947 4.9782 28.9358 5.08212ZM31.0068 12.7193L31.0085 12.7246L26.188 11.8577L26.188 11.8577C26.001 11.8241 25.8084 11.8662 25.6524 11.9746C25.4964 12.0831 25.3899 12.2491 25.3563 12.436C25.3227 12.623 25.3648 12.8157 25.4732 12.9717C25.5817 13.1276 25.7476 13.2341 25.9346 13.2677C25.9346 13.2677 25.9346 13.2677 25.9346 13.2677L30.9175 14.1644L30.9262 14.166H30.9352H31.0428C31.2245 14.171 31.4013 14.1065 31.5373 13.9857C31.6736 13.8646 31.7585 13.696 31.7747 13.5144C31.7909 13.3327 31.7371 13.1518 31.6243 13.0085C31.5116 12.8652 31.3483 12.7704 31.168 12.7434L31.0068 12.7193Z" fill="black" stroke="black" stroke-width="0.2"/>
</g>
<defs>
<clipPath id="clip0_76_1375">
<rect width="32" height="32" fill="white" transform="translate(0.5 0.393921)"/>
</clipPath>
</defs>
</svg>
