<svg width="19" height="19" viewBox="0 0 19 19" fill="none" xmlns="http://www.w3.org/2000/svg">
<path d="M9.23071 0.863281C8.04882 0.863281 6.87849 1.09607 5.78656 1.54837C4.69463 2.00066 3.70248 2.66359 2.86675 3.49932C2.03102 4.33505 1.36809 5.3272 0.915797 6.41913C0.463505 7.51106 0.230713 8.68138 0.230713 9.86328C0.230713 11.0452 0.463505 12.2155 0.915797 13.3074C1.36809 14.3994 2.03102 15.3915 2.86675 16.2272C3.70248 17.063 4.69463 17.7259 5.78656 18.1782C6.87849 18.6305 8.04882 18.8633 9.23071 18.8633C11.6177 18.8633 13.9068 17.9151 15.5947 16.2272C17.2825 14.5394 18.2307 12.2502 18.2307 9.86328C18.2307 7.47633 17.2825 5.18715 15.5947 3.49932C13.9068 1.81149 11.6177 0.863281 9.23071 0.863281ZM16.1507 8.86328H13.5807C13.525 7.06059 13.1245 5.28525 12.4007 3.63328C13.3985 4.14153 14.2598 4.88175 14.9124 5.79179C15.5649 6.70183 15.9895 7.75514 16.1507 8.86328ZM9.68071 16.8633H8.78071C7.87071 16.2933 6.78071 14.1033 6.64071 10.8633H11.8207C11.6407 14.0833 10.5907 16.2733 9.68071 16.8633ZM6.68071 8.86328C6.86071 5.64328 7.91071 3.45328 8.82071 2.86328H9.68071C10.5907 3.43328 11.6807 5.62328 11.8207 8.86328H6.68071ZM6.06071 3.63328C5.33697 5.28525 4.93642 7.06059 4.88071 8.86328H2.31071C2.47188 7.75514 2.89654 6.70183 3.54906 5.79179C4.20158 4.88175 5.0629 4.14153 6.06071 3.63328ZM2.31071 10.8633H4.88071C4.93642 12.666 5.33697 14.4413 6.06071 16.0933C5.0629 15.585 4.20158 14.8448 3.54906 13.9348C2.89654 13.0247 2.47188 11.9714 2.31071 10.8633ZM12.4007 16.0933C13.1245 14.4413 13.525 12.666 13.5807 10.8633H16.1507C15.9895 11.9714 15.5649 13.0247 14.9124 13.9348C14.2598 14.8448 13.3985 15.585 12.4007 16.0933Z" fill="white"/>
</svg>
