<svg width="33" height="33" viewBox="0 0 33 33" fill="none" xmlns="http://www.w3.org/2000/svg">
<g clip-path="url(#clip0_74_1354)">
<path d="M32.2254 22.3557L29.7469 19.8771V11.3751L31.365 10.7917C31.5464 10.7264 31.7032 10.6068 31.8142 10.4491C31.9251 10.2914 31.9846 10.1033 31.9848 9.91054C31.9849 9.71775 31.9256 9.52961 31.8149 9.37176C31.7042 9.21391 31.5476 9.09403 31.3663 9.02846L16.5614 3.66685C16.3552 3.59217 16.1293 3.59217 15.9231 3.66685L1.11829 9.02846C0.937764 9.0939 0.781681 9.21319 0.671147 9.37021C0.560613 9.52723 0.500959 9.7144 0.500251 9.90642C0.499542 10.0984 0.557812 10.2861 0.667184 10.4439C0.776555 10.6017 0.931753 10.7222 1.11179 10.7889L6.57558 12.8129V18.9908C6.57558 19.1826 6.63433 19.3697 6.744 19.527C6.80431 19.6135 7.37557 20.3936 8.83818 21.1297C10.6859 22.0599 13.1095 22.5315 16.0413 22.5315C18.971 22.5315 21.4068 22.0609 23.2809 21.1326C24.758 20.4009 25.3482 19.6289 25.4107 19.5434C25.5277 19.383 25.5908 19.1895 25.5908 18.9909V12.8734L27.8721 12.0509V19.8771L25.3935 22.3557C25.2177 22.5315 25.1189 22.7699 25.1189 23.0185C25.1189 23.2671 25.2177 23.5055 25.3935 23.6813L27.8721 26.1599V28.2395C27.8721 28.7572 28.2918 29.1769 28.8095 29.1769C29.3272 29.1769 29.7469 28.7572 29.7469 28.2395V26.1599L32.2255 23.6813C32.5916 23.3153 32.5916 22.7217 32.2254 22.3557ZM16.2423 5.54523L28.2887 9.90788L16.0457 14.3218L4.16288 9.91982L16.2423 5.54523ZM23.7159 18.6172C20.5113 21.5008 10.9885 21.1702 8.4504 18.6266V13.5075L15.7156 16.1988C15.8309 16.2171 15.9398 16.3165 16.3592 16.2017L23.7159 13.5495L23.7159 18.6172ZM28.8095 24.446L27.3819 23.0185L28.8095 21.591L30.2369 23.0185L28.8095 24.446Z" fill="black"/>
</g>
<defs>
<clipPath id="clip0_74_1354">
<rect width="32" height="32" fill="white" transform="translate(0.5 0.393921)"/>
</clipPath>
</defs>
</svg>
