<svg width="33" height="33" viewBox="0 0 33 33" fill="none" xmlns="http://www.w3.org/2000/svg">
<path d="M19.8451 12.2471H13.2102C12.7521 12.2471 12.3808 12.6185 12.3808 13.0765V19.7114C12.3808 20.1694 12.7521 20.5408 13.2102 20.5408H19.8451C20.3031 20.5408 20.6744 20.1694 20.6744 19.7114V13.0765C20.6744 12.6185 20.3031 12.2471 19.8451 12.2471ZM19.0157 18.882H14.0395V13.9059H19.0157V18.882Z" fill="black"/>
<path d="M29.7975 13.9058C30.2555 13.9058 30.6268 13.5345 30.6268 13.0765C30.6268 12.6184 30.2555 12.2471 29.7975 12.2471H27.3094V10.5884H29.7975C30.2555 10.5884 30.6268 10.217 30.6268 9.75901C30.6268 9.30098 30.2555 8.92964 29.7975 8.92964H27.2259C26.8952 7.30719 25.6143 6.02626 23.9919 5.69562V3.0688C23.9919 2.61077 23.6205 2.23944 23.1625 2.23944C22.7045 2.23944 22.3331 2.61077 22.3331 3.0688V5.61219H20.6744V3.0688C20.6744 2.61077 20.3031 2.23944 19.845 2.23944C19.387 2.23944 19.0157 2.61077 19.0157 3.0688V5.61219H17.357V3.0688C17.357 2.61077 16.9856 2.23944 16.5276 2.23944C16.0696 2.23944 15.6982 2.61077 15.6982 3.0688V5.61219H14.0395V3.0688C14.0395 2.61077 13.6682 2.23944 13.2101 2.23944C12.7521 2.23944 12.3808 2.61077 12.3808 3.0688V5.61219H10.722V3.0688C10.722 2.61077 10.3507 2.23944 9.89268 2.23944C9.43465 2.23944 9.06332 2.61077 9.06332 3.0688V5.69562C7.44097 6.02632 6.16004 7.30719 5.8294 8.92964H3.20253C2.7445 8.92964 2.37317 9.30098 2.37317 9.75901C2.37317 10.217 2.7445 10.5884 3.20253 10.5884H5.74592V12.2471H3.20253C2.7445 12.2471 2.37317 12.6184 2.37317 13.0765C2.37317 13.5345 2.7445 13.9058 3.20253 13.9058H5.74592V15.5646H3.20253C2.7445 15.5646 2.37317 15.9359 2.37317 16.3939C2.37317 16.8519 2.7445 17.2233 3.20253 17.2233H5.74592V18.882H3.20253C2.7445 18.882 2.37317 19.2533 2.37317 19.7114C2.37317 20.1694 2.7445 20.5407 3.20253 20.5407H5.74592V22.1995H3.20253C2.7445 22.1995 2.37317 22.5708 2.37317 23.0288C2.37317 23.4869 2.7445 23.8582 3.20253 23.8582H5.8294C6.16004 25.4806 7.44097 26.7615 9.06343 27.0922V29.719C9.06343 30.1771 9.43476 30.5484 9.89279 30.5484C10.3508 30.5484 10.7222 30.1771 10.7222 29.719V27.1756H12.3809V29.719C12.3809 30.1771 12.7522 30.5484 13.2102 30.5484C13.6683 30.5484 14.0396 30.1771 14.0396 29.719V27.1756H15.6983V29.719C15.6983 30.1771 16.0697 30.5484 16.5277 30.5484C16.9857 30.5484 17.3571 30.1771 17.3571 29.719V27.1756H19.0158V29.719C19.0158 30.1771 19.3871 30.5484 19.8452 30.5484C20.3032 30.5484 20.6745 30.1771 20.6745 29.719V27.1756H22.3332V29.719C22.3332 30.1771 22.7046 30.5484 23.1626 30.5484C23.6206 30.5484 23.992 30.1771 23.992 29.719V27.0922C25.6144 26.7616 26.8953 25.4806 27.226 23.8582H29.7975C30.2555 23.8582 30.6268 23.4869 30.6268 23.0288C30.6268 22.5708 30.2555 22.1995 29.7975 22.1995H27.3094V20.5407H29.7975C30.2555 20.5407 30.6268 20.1694 30.6268 19.7114C30.6268 19.2533 30.2555 18.882 29.7975 18.882H27.3094V17.2233H29.7975C30.2555 17.2233 30.6268 16.8519 30.6268 16.3939C30.6268 15.9359 30.2555 15.5646 29.7975 15.5646H27.3094V13.9058H29.7975ZM25.6506 23.0288C25.6506 24.4008 24.5345 25.5169 23.1626 25.5169H9.89273C8.5208 25.5169 7.40464 24.4008 7.40464 23.0288V9.75901C7.40464 8.38707 8.5208 7.27092 9.89273 7.27092H23.1626C24.5345 7.27092 25.6506 8.38707 25.6506 9.75901V23.0288Z" fill="black"/>
<path d="M13.2102 10.5884C13.6682 10.5884 14.0395 10.217 14.0395 9.75899C14.0395 9.30095 13.6682 8.92963 13.2102 8.92963C12.7521 8.92963 12.3808 9.30095 12.3808 9.75899C12.3808 10.217 12.7521 10.5884 13.2102 10.5884Z" fill="black"/>
<path d="M16.5277 10.5884C16.9857 10.5884 17.357 10.217 17.357 9.75899C17.357 9.30095 16.9857 8.92963 16.5277 8.92963C16.0696 8.92963 15.6983 9.30095 15.6983 9.75899C15.6983 10.217 16.0696 10.5884 16.5277 10.5884Z" fill="black"/>
<path d="M19.8451 10.5884C20.3032 10.5884 20.6745 10.217 20.6745 9.75899C20.6745 9.30095 20.3032 8.92963 19.8451 8.92963C19.3871 8.92963 19.0157 9.30095 19.0157 9.75899C19.0157 10.217 19.3871 10.5884 19.8451 10.5884Z" fill="black"/>
<path d="M19.8451 23.8582C20.3032 23.8582 20.6745 23.4869 20.6745 23.0288C20.6745 22.5708 20.3032 22.1995 19.8451 22.1995C19.3871 22.1995 19.0157 22.5708 19.0157 23.0288C19.0157 23.4869 19.3871 23.8582 19.8451 23.8582Z" fill="black"/>
<path d="M16.5277 23.8582C16.9857 23.8582 17.357 23.4869 17.357 23.0288C17.357 22.5708 16.9857 22.1995 16.5277 22.1995C16.0696 22.1995 15.6983 22.5708 15.6983 23.0288C15.6983 23.4869 16.0696 23.8582 16.5277 23.8582Z" fill="black"/>
<path d="M13.2102 23.8582C13.6682 23.8582 14.0395 23.4869 14.0395 23.0288C14.0395 22.5708 13.6682 22.1995 13.2102 22.1995C12.7521 22.1995 12.3808 22.5708 12.3808 23.0288C12.3808 23.4869 12.7521 23.8582 13.2102 23.8582Z" fill="black"/>
<path d="M9.89272 20.5407C10.3508 20.5407 10.7221 20.1694 10.7221 19.7114C10.7221 19.2533 10.3508 18.882 9.89272 18.882C9.43467 18.882 9.06335 19.2533 9.06335 19.7114C9.06335 20.1694 9.43467 20.5407 9.89272 20.5407Z" fill="black"/>
<path d="M9.89272 17.2233C10.3508 17.2233 10.7221 16.852 10.7221 16.3939C10.7221 15.9359 10.3508 15.5646 9.89272 15.5646C9.43467 15.5646 9.06335 15.9359 9.06335 16.3939C9.06335 16.852 9.43467 17.2233 9.89272 17.2233Z" fill="black"/>
<path d="M9.89272 13.9059C10.3508 13.9059 10.7221 13.5345 10.7221 13.0765C10.7221 12.6185 10.3508 12.2471 9.89272 12.2471C9.43467 12.2471 9.06335 12.6185 9.06335 13.0765C9.06335 13.5345 9.43467 13.9059 9.89272 13.9059Z" fill="black"/>
<path d="M23.1626 13.9059C23.6206 13.9059 23.9919 13.5345 23.9919 13.0765C23.9919 12.6185 23.6206 12.2471 23.1626 12.2471C22.7045 12.2471 22.3332 12.6185 22.3332 13.0765C22.3332 13.5345 22.7045 13.9059 23.1626 13.9059Z" fill="black"/>
<path d="M23.1626 17.2233C23.6206 17.2233 23.9919 16.852 23.9919 16.3939C23.9919 15.9359 23.6206 15.5646 23.1626 15.5646C22.7045 15.5646 22.3332 15.9359 22.3332 16.3939C22.3332 16.852 22.7045 17.2233 23.1626 17.2233Z" fill="black"/>
<path d="M23.1626 20.5407C23.6206 20.5407 23.9919 20.1694 23.9919 19.7114C23.9919 19.2533 23.6206 18.882 23.1626 18.882C22.7045 18.882 22.3332 19.2533 22.3332 19.7114C22.3332 20.1694 22.7045 20.5407 23.1626 20.5407Z" fill="black"/>
</svg>
