<svg width="18" height="18" viewBox="0 0 18 18" fill="none" xmlns="http://www.w3.org/2000/svg">
<path d="M17.8696 16.4593L13.8696 12.4543C13.74 12.3217 13.5958 12.2043 13.4396 12.1043L12.4396 11.4143C13.4386 10.1765 13.9873 8.636 13.9957 7.04539C14.004 5.45478 13.4716 3.90854 12.4856 2.66033C11.5009 1.41308 10.1207 0.538324 8.5725 0.180072C7.02425 -0.17818 5.40017 0.00143045 3.96762 0.689333C2.53623 1.37905 1.38158 2.53452 0.692865 3.96639C0.00415325 5.39826 -0.177764 7.02161 0.176924 8.5704C0.531612 10.1192 1.40187 11.5016 2.64508 12.491C3.8883 13.4805 5.43073 14.0183 7.01962 14.0163C8.60762 14.0163 10.1496 13.4763 11.3896 12.4853L12.1396 13.4853C12.2286 13.6153 12.3296 13.7353 12.4396 13.8463L16.4396 17.8513C16.486 17.8984 16.5412 17.9359 16.6022 17.9614C16.6631 17.9869 16.7285 18.0001 16.7946 18.0001C16.8607 18.0001 16.9261 17.9869 16.9871 17.9614C17.048 17.9359 17.1033 17.8984 17.1496 17.8513L17.8496 17.1513C17.9414 17.0607 17.9946 16.9382 17.9984 16.8093C18.0021 16.6805 17.956 16.5551 17.8696 16.4593ZM7.01962 12.0143C6.19675 12.0141 5.38663 11.811 4.66104 11.4229C3.93544 11.0347 3.31679 10.4736 2.85988 9.78927C2.40298 9.10491 2.12193 8.3184 2.04165 7.49946C1.96137 6.68051 2.08432 5.8544 2.39962 5.09433C2.7776 4.17983 3.41827 3.39795 4.24063 2.84757C5.06299 2.2972 6.03008 2.00305 7.01962 2.00233C9.78062 2.00233 12.0196 4.24333 12.0196 7.00833C12.0194 7.99794 11.7261 8.96531 11.1767 9.78842C10.6273 10.6115 9.84643 11.2535 8.93262 11.6333C8.32618 11.8848 7.67613 12.0143 7.01962 12.0143Z" fill="#191919"/>
</svg>
