<svg width="24" height="25" viewBox="0 0 24 25" fill="none" xmlns="http://www.w3.org/2000/svg">
<path d="M12.2891 3.26892H11.8353C9.93685 3.26892 8.39783 4.80794 8.39783 6.70642V12.8252C8.39783 14.7236 9.93685 16.2627 11.8353 16.2627H12.2891C14.1876 16.2627 15.7266 14.7236 15.7266 12.8252V6.70642C15.7266 4.80794 14.1876 3.26892 12.2891 3.26892Z" fill="#191919"/>
<path d="M18.4773 11.3766C18.2949 11.3766 18.1201 11.449 17.9911 11.578C17.8622 11.7069 17.7898 11.8818 17.7898 12.0641C17.7898 13.5831 17.1863 15.04 16.1122 16.1141C15.0381 17.1882 13.5813 17.7916 12.0622 17.7916C10.5432 17.7916 9.08635 17.1882 8.01222 16.1141C6.93809 15.04 6.33466 13.5831 6.33466 12.0641C6.33466 11.8818 6.26222 11.7069 6.13329 11.578C6.00436 11.449 5.82949 11.3766 5.64716 11.3766C5.46482 11.3766 5.28995 11.449 5.16102 11.578C5.03209 11.7069 4.95966 11.8818 4.95966 12.0641C4.96209 13.8279 5.61991 15.5279 6.80538 16.8339C7.99085 18.14 9.61937 18.9589 11.3747 19.1316V21.1439H9.08328C8.90094 21.1439 8.72608 21.2163 8.59715 21.3453C8.46821 21.4742 8.39578 21.6491 8.39578 21.8314C8.39578 22.0137 8.46821 22.1886 8.59715 22.3175C8.72608 22.4465 8.90094 22.5189 9.08328 22.5189H15.0412C15.2235 22.5189 15.3984 22.4465 15.5273 22.3175C15.6562 22.1886 15.7287 22.0137 15.7287 21.8314C15.7287 21.6491 15.6562 21.4742 15.5273 21.3453C15.3984 21.2163 15.2235 21.1439 15.0412 21.1439H12.7497V19.1316C14.5051 18.9589 16.1336 18.14 17.3191 16.8339C18.5045 15.5279 19.1623 13.8279 19.1648 12.0641C19.1648 11.8818 19.0923 11.7069 18.9634 11.578C18.8345 11.449 18.6596 11.3766 18.4773 11.3766Z" fill="#191919"/>
</svg>
