<svg width="25" height="25" viewBox="0 0 25 25" fill="none" xmlns="http://www.w3.org/2000/svg">
<path d="M24.5827 2.89309V21.3742C24.5827 22.0744 24.3046 22.746 23.8094 23.2411C23.3143 23.7362 22.6428 24.0144 21.9426 24.0144H16.9923C16.8172 24.0144 16.6493 23.9448 16.5255 23.8211C16.4018 23.6973 16.3322 23.5294 16.3322 23.3543V15.4339H19.4212C19.5734 15.4339 19.7209 15.3813 19.8387 15.2851C19.9566 15.1889 20.0376 15.0549 20.0681 14.9058L20.5433 12.5297C20.553 12.4823 20.5521 12.4333 20.5408 12.3863C20.5294 12.3392 20.5079 12.2952 20.4776 12.2574C20.4474 12.2197 20.4092 12.189 20.3658 12.1676C20.3224 12.1462 20.2749 12.1346 20.2265 12.1336H16.3322V7.84339C16.3322 7.75586 16.367 7.67192 16.4289 7.61003C16.4908 7.54814 16.5747 7.51337 16.6622 7.51337H19.9625C20.1375 7.51337 20.3054 7.44383 20.4292 7.32005C20.553 7.19627 20.6225 7.02838 20.6225 6.85333V4.87321C20.6225 4.69816 20.553 4.53027 20.4292 4.40649C20.3054 4.28271 20.1375 4.21317 19.9625 4.21317H16.6622C15.6119 4.21317 14.6046 4.63041 13.8619 5.3731C13.1192 6.11579 12.702 7.12309 12.702 8.17341V12.1336H11.0783C10.9033 12.1336 10.7354 12.2032 10.6116 12.327C10.4878 12.4508 10.4183 12.6186 10.4183 12.7937V14.7738C10.4183 14.9489 10.4878 15.1167 10.6116 15.2405C10.7354 15.3643 10.9033 15.4339 11.0783 15.4339H12.702V23.3543C12.702 23.5294 12.6325 23.6973 12.5087 23.8211C12.3849 23.9448 12.217 24.0144 12.042 24.0144H3.46145C2.76124 24.0144 2.0897 23.7362 1.59457 23.2411C1.09945 22.746 0.821289 22.0744 0.821289 21.3742V2.89309C0.821289 2.19288 1.09945 1.52134 1.59457 1.02621C2.0897 0.531089 2.76124 0.25293 3.46145 0.25293H21.9426C22.6428 0.25293 23.3143 0.531089 23.8094 1.02621C24.3046 1.52134 24.5827 2.19288 24.5827 2.89309Z" fill="white"/>
</svg>
