<svg width="19" height="16" viewBox="0 0 19 16" fill="none" xmlns="http://www.w3.org/2000/svg">
<path d="M17.018 0.88129L16.282 0.145348C16.074 -0.0626432 15.69 -0.0306342 15.45 0.257311L12.8898 2.80128C11.7378 2.30533 10.4739 2.06533 9.14584 2.06533C5.19372 2.08127 1.76994 4.38524 0.121825 7.69745C0.0257978 7.90544 0.0257978 8.16137 0.121825 8.33736C0.889758 9.90538 2.04183 11.2014 3.48183 12.1774L1.38584 14.3053C1.14584 14.5453 1.11383 14.9293 1.27388 15.1373L2.00982 15.8733C2.21781 16.0812 2.6018 16.0492 2.8418 15.7613L16.8897 1.7134C17.1937 1.47354 17.2257 1.08958 17.0177 0.881565L17.018 0.88129ZM9.99383 5.71318C9.72182 5.64916 9.43388 5.5692 9.16185 5.5692C7.8018 5.5692 6.71392 6.65723 6.71392 8.01714C6.71392 8.28914 6.77794 8.57709 6.85789 8.84911L5.78577 9.90515C5.46582 9.34519 5.28983 8.72109 5.28983 8.01717C5.28983 5.88919 7.00186 4.17717 9.12984 4.17717C9.8339 4.17717 10.4579 4.35315 11.0178 4.67311L9.99383 5.71318Z" fill="#666666" fill-opacity="0.8"/>
<path d="M18.1699 7.6974C17.61 6.57735 16.8739 5.56942 15.962 4.75339L12.9859 7.6974V8.01735C12.9859 10.1453 11.2739 11.8574 9.14593 11.8574H8.82597L6.93799 13.7453C7.64205 13.8893 8.37799 13.9853 9.09799 13.9853C13.0501 13.9853 16.4739 11.6814 18.122 8.35322C18.266 8.12915 18.266 7.90524 18.17 7.69723L18.1699 7.6974Z" fill="#666666" fill-opacity="0.8"/>
</svg>
