<svg width="16" height="16" viewBox="0 0 16 16" fill="none" xmlns="http://www.w3.org/2000/svg">
<path d="M14.7403 12.7097C15.0649 12.7098 15.377 12.8348 15.6119 13.0588C15.8467 13.2828 15.9865 13.5885 16.0021 13.9127C16.0177 14.2369 15.9079 14.5547 15.6956 14.8002C15.4833 15.0457 15.1847 15.2001 14.8617 15.2314L14.7403 15.2373H1.25966C0.935102 15.2371 0.623042 15.1121 0.388149 14.8881C0.153255 14.6641 0.0135329 14.3584 -0.00206448 14.0342C-0.0176618 13.71 0.092061 13.3923 0.304368 13.1468C0.516675 12.9013 0.81529 12.7469 1.13834 12.7156L1.25966 12.7097H14.7403ZM14.7403 6.81186C15.0755 6.81186 15.397 6.94501 15.634 7.18202C15.871 7.41903 16.0042 7.74049 16.0042 8.07567C16.0042 8.41086 15.871 8.73231 15.634 8.96932C15.397 9.20633 15.0755 9.33948 14.7403 9.33948H1.25966C0.924479 9.33948 0.603023 9.20633 0.366012 8.96932C0.129001 8.73231 -0.00415039 8.41086 -0.00415039 8.07567C-0.00415039 7.74049 0.129001 7.41903 0.366012 7.18202C0.603023 6.94501 0.924479 6.81186 1.25966 6.81186H14.7403ZM14.7403 0.914062C15.0755 0.914062 15.397 1.04721 15.634 1.28422C15.871 1.52124 16.0042 1.84269 16.0042 2.17788C16.0042 2.51306 15.871 2.83452 15.634 3.07153C15.397 3.30854 15.0755 3.44169 14.7403 3.44169H1.25966C0.924479 3.44169 0.603023 3.30854 0.366012 3.07153C0.129001 2.83452 -0.00415039 2.51306 -0.00415039 2.17788C-0.00415039 1.84269 0.129001 1.52124 0.366012 1.28422C0.603023 1.04721 0.924479 0.914063 1.25966 0.914062H14.7403Z" fill="white"/>
</svg>
