<svg width="24" height="25" viewBox="0 0 24 25" fill="none" xmlns="http://www.w3.org/2000/svg">
<path d="M17.3798 0.253052H6.81915C5.06862 0.253052 3.38978 0.948449 2.15196 2.18626C0.914147 3.42408 0.21875 5.10292 0.21875 6.85345V17.4141C0.21875 19.1646 0.914147 20.8435 2.15196 22.0813C3.38978 23.3191 5.06862 24.0145 6.81915 24.0145H17.3798C19.1303 24.0145 20.8092 23.3191 22.047 22.0813C23.2848 20.8435 23.9802 19.1646 23.9802 17.4141V6.85345C23.9802 5.10292 23.2848 3.42408 22.047 2.18626C20.8092 0.948449 19.1303 0.253052 17.3798 0.253052ZM21.6701 17.4141C21.6666 18.5509 21.2134 19.6401 20.4096 20.4439C19.6058 21.2477 18.5166 21.7009 17.3798 21.7044H6.81915C5.68237 21.7009 4.59315 21.2477 3.78932 20.4439C2.9855 19.6401 2.53237 18.5509 2.52889 17.4141V6.85345C2.53237 5.71668 2.9855 4.62745 3.78932 3.82363C4.59315 3.0198 5.68237 2.56667 6.81915 2.56319H17.3798C18.5166 2.56667 19.6058 3.0198 20.4096 3.82363C21.2134 4.62745 21.6666 5.71668 21.6701 6.85345V17.4141ZM19.6899 5.86339C19.6899 6.2135 19.5509 6.54927 19.3033 6.79683C19.0557 7.04439 18.72 7.18347 18.3699 7.18347C18.0197 7.18347 17.684 7.04439 17.4364 6.79683C17.1888 6.54927 17.0498 6.2135 17.0498 5.86339C17.0498 5.51329 17.1888 5.17752 17.4364 4.92995C17.684 4.68239 18.0197 4.54331 18.3699 4.54331C18.72 4.54331 19.0557 4.68239 19.3033 4.92995C19.5509 5.17752 19.6899 5.51329 19.6899 5.86339ZM12.0995 6.19341C10.9246 6.19341 9.77607 6.54181 8.79918 7.19454C7.8223 7.84728 7.0609 8.77504 6.61129 9.86049C6.16168 10.946 6.04404 12.1404 6.27325 13.2927C6.50246 14.445 7.06823 15.5035 7.899 16.3342C8.72978 17.165 9.78825 17.7308 10.9406 17.96C12.0929 18.1892 13.2873 18.0716 14.3727 17.6219C15.4582 17.1723 16.386 16.4109 17.0387 15.4341C17.6914 14.4572 18.0398 13.3087 18.0398 12.1338C18.0416 11.3532 17.8891 10.5799 17.5912 9.85844C17.2933 9.13693 16.8558 8.48138 16.3038 7.92942C15.7519 7.37746 15.0963 6.93996 14.3748 6.64205C13.6533 6.34414 12.8801 6.19167 12.0995 6.19341ZM12.0995 15.764C11.1367 15.764 10.2133 15.3815 9.53252 14.7007C8.85172 14.0199 8.46925 13.0966 8.46925 12.1338C8.46925 11.171 8.85172 10.2476 9.53252 9.56682C10.2133 8.88602 11.1367 8.50355 12.0995 8.50355C13.0623 8.50355 13.9856 8.88602 14.6664 9.56682C15.3472 10.2476 15.7297 11.171 15.7297 12.1338C15.7297 13.0966 15.3472 14.0199 14.6664 14.7007C13.9856 15.3815 13.0623 15.764 12.0995 15.764Z" fill="white"/>
</svg>
