<svg width="16" height="18" viewBox="0 0 16 18" fill="none" xmlns="http://www.w3.org/2000/svg">
<path d="M3.35888 3.3298C4.60081 2.1127 6.27288 1.43491 8.01174 1.44369C9.7506 1.45247 11.4157 2.14712 12.6453 3.3767C13.8749 4.60627 14.5695 6.27141 14.5783 8.01027C14.5871 9.74913 13.9093 11.4212 12.6922 12.6631L9.20388 16.1515C8.89134 16.4639 8.46749 16.6394 8.02555 16.6394C7.58361 16.6394 7.15976 16.4639 6.84722 16.1515L3.35888 12.6631C2.12129 11.4254 1.42603 9.74678 1.42603 7.99646C1.42603 6.24615 2.12129 4.56752 3.35888 3.3298Z" stroke="black" stroke-linejoin="round"/>
<path d="M8.02551 10.4966C9.40622 10.4966 10.5255 9.37729 10.5255 7.99658C10.5255 6.61587 9.40622 5.49658 8.02551 5.49658C6.6448 5.49658 5.52551 6.61587 5.52551 7.99658C5.52551 9.37729 6.6448 10.4966 8.02551 10.4966Z" stroke="black" stroke-linecap="round" stroke-linejoin="round"/>
</svg>
