<svg width="16" height="17" viewBox="0 0 16 17" fill="none" xmlns="http://www.w3.org/2000/svg">
<path d="M3.35888 2.47994C4.60081 1.26285 6.27288 0.585052 8.01174 0.593834C9.7506 0.602617 11.4157 1.29727 12.6453 2.52685C13.8749 3.75642 14.5695 5.42156 14.5783 7.16042C14.5871 8.89928 13.9093 10.5713 12.6922 11.8133L9.20388 15.3016C8.89134 15.6141 8.46749 15.7896 8.02555 15.7896C7.58361 15.7896 7.15976 15.6141 6.84722 15.3016L3.35888 11.8133C2.12129 10.5756 1.42603 8.89692 1.42603 7.14661C1.42603 5.3963 2.12129 3.71766 3.35888 2.47994Z" stroke="#F32E2E" stroke-linejoin="round"/>
<path d="M8.02551 9.64661C9.40622 9.64661 10.5255 8.52732 10.5255 7.14661C10.5255 5.76589 9.40622 4.64661 8.02551 4.64661C6.6448 4.64661 5.52551 5.76589 5.52551 7.14661C5.52551 8.52732 6.6448 9.64661 8.02551 9.64661Z" stroke="#F32E2E" stroke-linecap="round" stroke-linejoin="round"/>
</svg>
