<svg width="23" height="22" viewBox="0 0 23 22" fill="none" xmlns="http://www.w3.org/2000/svg">
<path d="M10.8912 1H10.4375C8.53902 1 7 2.53902 7 4.4375V10.5562C7 12.4547 8.53902 13.9937 10.4375 13.9937H10.8912C12.7897 13.9937 14.3287 12.4547 14.3287 10.5562V4.4375C14.3287 2.53902 12.7897 1 10.8912 1Z" fill="white"/>
<path d="M17.4771 9.48268C17.2948 9.48268 17.1199 9.55511 16.991 9.68405C16.862 9.81298 16.7896 9.98784 16.7896 10.1702C16.7896 11.6892 16.1862 13.1461 15.112 14.2202C14.0379 15.2943 12.5811 15.8977 11.062 15.8977C9.54299 15.8977 8.08616 15.2943 7.01204 14.2202C5.93791 13.1461 5.33447 11.6892 5.33447 10.1702C5.33447 9.98784 5.26204 9.81298 5.13311 9.68405C5.00418 9.55511 4.82931 9.48268 4.64697 9.48268C4.46464 9.48268 4.28977 9.55511 4.16084 9.68405C4.03191 9.81298 3.95947 9.98784 3.95947 10.1702C3.96191 11.934 4.61973 13.634 5.8052 14.94C6.99067 16.2461 8.61919 17.0649 10.3745 17.2377V19.25H8.0831C7.90076 19.25 7.72589 19.3224 7.59696 19.4514C7.46803 19.5803 7.3956 19.7552 7.3956 19.9375C7.3956 20.1198 7.46803 20.2947 7.59696 20.4236C7.72589 20.5526 7.90076 20.625 8.0831 20.625H14.041C14.2233 20.625 14.3982 20.5526 14.5271 20.4236C14.656 20.2947 14.7285 20.1198 14.7285 19.9375C14.7285 19.7552 14.656 19.5803 14.5271 19.4514C14.3982 19.3224 14.2233 19.25 14.041 19.25H11.7495V17.2377C13.5049 17.0649 15.1334 16.2461 16.3189 14.94C17.5043 13.634 18.1622 11.934 18.1646 10.1702C18.1646 9.98784 18.0922 9.81298 17.9632 9.68405C17.8343 9.55511 17.6594 9.48268 17.4771 9.48268Z" fill="white"/>
</svg>
