<svg width="354" height="74" viewBox="0 0 354 74" fill="none" xmlns="http://www.w3.org/2000/svg">
<path d="M12.7502 61.6756C12.9198 61.6888 13.0852 61.7041 13.2554 61.7318C14.7805 61.9754 16.0989 63.6204 17.6853 62.7501C17.8814 62.2915 18.2082 62.1224 18.4038 61.6811C20.2421 61.5663 23.3031 61.6322 24.4023 63.4075C26.2175 66.343 26.1306 62.7374 27.5021 64.0011C27.5225 64.326 26.9938 68.623 28.6063 66.9937C28.8847 66.7122 28.5348 66.2913 29.065 66.2233C29.6646 66.1457 29.5737 67.1857 29.5579 67.5463C29.5017 68.794 28.0077 69.4314 27.9602 70.6538C27.9496 70.8738 28.9107 71.5705 29.0447 71.715C29.5937 72.3239 29.7407 72.9854 29.7852 73.7888C31.2087 73.8934 31.4288 73.4726 31.3763 72.1084C31.3312 70.9306 32.9386 70.2303 33.5143 69.2895C34.1838 68.1934 34.6794 66.8297 36.1855 67.5008C37.5012 68.0846 38.7444 68.4038 40.1971 68.3277C39.9151 66.2182 44.609 66.5221 44.8061 68.9325C45.5846 68.9887 46.3716 68.9697 47.1353 69.1699C48.4729 69.5239 47.81 69.0234 48.6844 68.413C48.7257 68.1219 48.8581 67.8737 48.9311 67.5824C49.0736 67.8129 49.2998 67.913 49.3985 68.2041C49.9016 67.9952 49.6411 67.3955 50.0523 67.1049C50.4516 66.8205 51.0503 67.0314 51.4926 66.8849C51.6504 66.446 52.0345 66.1452 52.0687 65.6958C50.8674 65.8434 51.036 63.879 51.1509 63.1926C51.2362 62.6456 51.4594 62.193 51.6233 61.6561C51.9405 60.6182 51.7255 59.3419 52.1035 58.3653C52.8639 58.6615 55.4847 60.1646 55.6282 58.8286C55.7717 57.5083 56.877 57.0854 57.2795 58.6702C57.4169 59.2137 57.4052 59.9032 57.776 60.3629C58.4721 61.2209 58.8674 60.1285 59.3205 59.7714C60.1229 59.1396 60.628 59.3025 60.6209 58.0977C60.6096 56.9878 60.2675 56.8059 59.2301 56.7185C59.1974 56.5786 59.2046 56.4458 59.2332 56.3074C60.0372 56.4294 60.0617 55.6486 60.5944 55.2961C61.128 54.9396 61.9372 54.7879 62.571 54.7456C62.5311 54.0964 62.7314 53.4543 62.6977 52.7811C61.8401 52.7102 61.8789 52.251 62.0786 51.5492C62.4003 51.1029 63.0118 51.1866 63.6078 51.2279C63.5956 51.8777 64.3888 51.9563 64.8398 52.1029C65.6938 52.3761 65.6908 53.2322 66.0794 53.8962C66.843 54.0034 66.5744 50.3857 66.5493 49.9112C66.5034 49.0572 66.9851 47.8997 66.1362 47.2798C65.3583 46.7093 64.7479 45.701 64.3312 44.6498C64.2162 44.7561 64.0982 44.8454 63.9751 44.8935C63.968 44.943 63.9644 44.9742 63.9547 44.945C63.9643 44.9741 63.968 44.943 63.9751 44.8935C63.782 44.9721 63.5798 44.9742 63.372 44.8689C63.541 44.9531 62.6686 43.8469 62.713 43.9389C62.5618 43.6252 62.7023 43.2743 62.6001 42.953C62.4995 42.6353 61.9627 42.5429 62.1491 42.0577C62.3478 41.5532 63.544 38.5564 64.2739 38.6463C64.399 38.6622 64.8071 38.9012 65.2157 39.1519C65.0743 38.9901 64.9286 38.8394 64.7709 38.7162C63.2211 37.5017 61.0918 37.9241 59.7894 36.002C59.2393 35.1879 59.5942 34.6061 59.9865 33.8375C60.3528 33.1341 59.8936 31.7244 59.9064 30.9204C59.7833 30.9333 59.6168 30.875 59.4922 30.8837C59.4543 29.3264 58.6576 29.9761 57.5951 29.7892C56.5624 29.6063 56.1082 27.719 55.5536 26.9452C54.621 25.6433 54.2445 25.8736 53.9529 27.2164C53.6112 28.7783 51.657 28.3165 50.4725 28.2282C50.4046 27.0111 50.6845 25.7306 50.2932 24.5441C49.9255 23.4276 49.0868 22.5711 48.3958 21.6507C47.9703 21.0847 43.8485 16.0772 47.2057 16.7242C47.3426 16.1385 45.2157 13.2175 44.7621 12.749C43.946 11.9124 42.6348 11.5196 41.5746 11.1023C40.7017 10.7602 39.5881 11.1161 38.8011 10.5349C39.1055 10.0191 39.7639 10.1809 40.2179 9.95162C41.0438 9.53275 40.5576 8.34021 40.4678 7.67975C40.2251 5.95385 41.9764 6.49784 43.1789 6.43609C43.0435 6.44318 43.848 4.5223 43.9256 4.38125C44.3685 3.55538 45.487 3.41338 46.3307 3.35155C46.414 2.42206 45.3633 1.5966 44.9032 0.900451C44.8275 0.790069 44.6749 0.43772 44.5011 0.0378148C44.0589 0.0218385 43.8908 -0.204403 43.5916 0.671056C43.2896 1.54967 43.4627 1.77022 42.456 1.87957C41.695 1.96177 40.8901 1.83264 40.1265 1.87347C40.1572 2.77748 38.9803 2.60896 39.0692 3.72145C37.9006 3.7832 37.4368 3.40624 36.4112 3.06708C36.3718 3.05476 36.3279 3.05069 36.2891 3.04102C36.1276 3.95993 35.8233 4.95125 35.8064 5.76587C35.7891 6.60104 35.6211 6.78649 34.9785 7.2952C34.5143 7.66402 33.9483 7.88827 33.7466 8.51388C32.1117 8.60069 30.4997 8.60733 28.8525 8.59148C28.1154 8.58438 26.9095 8.33864 26.3012 8.77842C25.7608 9.17222 25.841 10.1779 25.0528 10.2398C25.0615 12.1807 23.4731 11.4033 22.1113 11.8639C21.3656 12.1173 20.9514 12.6736 20.4275 13.268C19.861 13.9121 20.0203 14.0219 19.7369 14.8443C19.3487 15.974 18.9187 14.9352 18.272 15.5163C17.7178 16.0144 18.9401 17.7352 19.1944 18.1882C19.7497 19.2062 20.0842 20.2262 19.9861 21.4003C19.6853 21.5107 19.4018 21.6646 19.1474 21.8615C20.4937 21.8469 20.7461 22.045 20.6343 23.4108C20.6117 23.7259 19.7793 23.9185 19.5663 24.09C19.1526 24.4283 18.6352 25.0421 18.4115 25.5223C18.153 26.0836 16.9266 30.5961 18.2179 30.6615C18.2015 30.7821 18.2399 30.9491 18.249 31.0743C18.605 31.0942 18.9759 31.0998 19.3324 31.0855C19.2925 30.9082 19.4111 30.6309 19.3691 30.4516C19.8911 30.251 20.6128 30.2575 21.1246 30.4715C21.1379 30.7765 21.2636 31.4506 21.025 31.6825C20.7232 31.9787 20.15 31.6524 19.7894 31.7724C19.2139 31.964 19.4335 32.1524 19.081 32.5478C18.6775 33.0014 18.6618 32.8399 18.0989 33.0932C17.5992 33.3185 17.635 33.2368 17.2791 33.7475C17.0186 34.1239 16.9374 34.345 16.6309 34.6372C15.9485 35.2855 15.3633 35.9949 14.7166 36.736C14.0424 37.5062 13.4612 37.4577 12.575 37.826C11.3803 38.3235 11.9524 38.8613 11.5571 39.8199C11.2547 40.5513 10.345 40.601 9.83633 41.2495C9.17283 42.0929 9.11968 42.3467 7.9654 42.3615C7.9337 42.8238 7.95158 43.308 7.91888 43.7718C7.15829 43.9357 6.94383 45.1038 6.15112 45.2407C6.13888 45.3015 6.12668 45.3648 6.1107 45.4231C5.29964 45.4741 3.47366 45.186 3.68006 46.516C4.25318 46.4287 4.69844 46.8271 4.52992 47.4146C4.51718 47.464 3.17542 47.6898 2.99205 47.8655C2.07625 48.7322 3.0064 49.5448 3.83526 49.8978C3.90527 51.2518 3.71019 52.4312 3.47577 53.658C3.27663 54.6882 3.47362 54.752 2.48184 55.2347C1.61614 55.6556 0.912764 56.01 0.391771 56.8008C0.239976 57.0331 0.115984 57.2656 0 57.4903C1.13444 58.0649 1.98226 58.8396 1.9306 59.8546L12.7502 61.6756Z" fill="#FB295B"/>
<path d="M41.0999 48.3668H31.1191L29.3592 52.4307C28.9317 53.4303 28.7187 54.175 28.7187 54.6663C28.7187 55.0627 28.9037 55.4109 29.2753 55.711C29.6484 56.0118 30.4607 56.2023 31.713 56.2831V56.9951H23.5822V56.2831C24.6595 56.0927 25.3576 55.847 25.6747 55.5462C26.323 54.943 27.0366 53.707 27.8139 51.8368L36.8931 30.6096H37.5585L46.5443 52.0762C47.2571 53.8034 47.9101 54.9205 48.5032 55.428C49.0978 55.9341 49.9187 56.2194 50.9658 56.2831V56.9951H40.7921V56.2831C41.8221 56.2357 42.5155 56.0655 42.8722 55.7732C43.2283 55.4793 43.407 55.1257 43.407 54.7129C43.407 54.1595 43.1529 53.2811 42.6453 52.0762L41.0999 48.3668ZM40.5558 46.9645L36.181 36.5297L31.713 46.9645H40.5558Z" fill="white"/>
<path d="M45.1639 23.7764L45.1875 24.1243L45.7378 32.2427L45.7648 32.641H45.3656H44.8152H44.537L44.4576 32.3743C43.75 29.9962 42.7477 28.331 41.4802 27.3241C40.2032 26.3105 38.6657 25.7975 36.8492 25.7975C35.3321 25.7975 33.9674 26.1835 32.7446 26.9528L32.7445 26.9528C31.5415 27.7092 30.5769 28.9226 29.8651 30.6296L45.1639 23.7764ZM45.1639 23.7764H44.8152M45.1639 23.7764H44.8152M44.8152 23.7764H44.1996H43.9032L43.8361 24.0651C43.7133 24.5938 43.5255 24.9653 43.2948 25.2107C43.1291 25.3748 42.9461 25.4492 42.7258 25.4492C42.6909 25.4492 42.6017 25.4351 42.4387 25.3738C42.2829 25.3152 42.0855 25.2237 41.844 25.095L41.8441 25.095L41.8376 25.0917C40.1169 24.2178 38.3571 23.7764 36.5631 23.7764C34.2842 23.7764 32.1759 24.3439 30.2456 25.4789L30.2455 25.479C28.3136 26.6159 26.7958 28.2158 25.6938 30.2694L25.6938 30.2695C24.5937 32.3211 24.0451 34.5664 24.0451 37.0003C24.0451 40.037 24.8723 42.691 26.5371 44.9454L26.5373 44.9457C28.7861 47.9849 31.9682 49.4997 36.0346 49.4997C38.2932 49.4997 40.2609 48.991 41.9217 47.9571C43.5797 46.9257 45.0158 45.3214 46.2402 43.1702L46.4156 42.862L46.1167 42.6712L45.5663 42.3198L45.2697 42.1304L45.0633 42.4155C43.6513 44.3661 42.3887 45.627 41.2785 46.248C40.1604 46.8718 38.8566 47.1894 37.356 47.1894C35.6277 47.1894 34.1089 46.7833 32.7866 45.9784L32.7864 45.9783C31.4694 45.1773 30.4771 44.0249 29.8093 42.5059L29.8093 42.5059M44.8152 23.7764L29.8093 42.5059M29.8093 42.5059C29.1381 40.98 28.7961 39.1624 28.7961 37.0438C28.7961 34.4642 29.1573 32.3307 29.865 30.6299L29.8093 42.5059Z" fill="white" stroke="#FB295B" stroke-width="0.746232"/>
<path d="M94.3208 32.8083C94.3208 34.0124 94.0445 35.1178 93.4918 36.1245C92.9391 37.1114 92.0903 37.9109 90.9454 38.5228C89.8006 39.1347 88.3793 39.4406 86.6818 39.4406H83.5432V46.902H78.4802V26.1167H86.6818C88.3399 26.1167 89.7413 26.4029 90.8862 26.9754C92.0311 27.5478 92.8897 28.3374 93.4622 29.3441C94.0346 30.3508 94.3208 31.5055 94.3208 32.8083ZM86.2969 35.4138C87.2641 35.4138 87.9846 35.1868 88.4583 34.7328C88.932 34.2788 89.1689 33.6373 89.1689 32.8083C89.1689 31.9792 88.932 31.3377 88.4583 30.8837C87.9846 30.4297 87.2641 30.2027 86.2969 30.2027H83.5432V35.4138H86.2969ZM101.931 26.1167V38.5524C101.931 39.7959 102.237 40.7533 102.849 41.4244C103.461 42.0956 104.359 42.4311 105.543 42.4311C106.728 42.4311 107.636 42.0956 108.267 41.4244C108.899 40.7533 109.215 39.7959 109.215 38.5524V26.1167H114.278V38.5228C114.278 40.3782 113.883 41.9475 113.093 43.2306C112.304 44.5136 111.238 45.4808 109.896 46.1322C108.573 46.7836 107.093 47.1093 105.454 47.1093C103.816 47.1093 102.345 46.7935 101.043 46.1618C99.7597 45.5104 98.7431 44.5432 97.993 43.2602C97.2429 41.9574 96.8679 40.3782 96.8679 38.5228V26.1167H101.931ZM136.427 46.902H131.364L122.896 34.0815V46.902H117.833V26.1167H122.896L131.364 38.9965V26.1167H136.427V46.902ZM153.125 26.1167V40.2697C153.125 42.4607 152.504 44.1484 151.26 45.3328C150.036 46.5171 148.378 47.1093 146.286 47.1093C144.095 47.1093 142.338 46.4875 141.015 45.2439C139.693 44.0004 139.032 42.2337 139.032 39.944H144.065C144.065 40.8125 144.243 41.4738 144.598 41.9278C144.953 42.362 145.467 42.5792 146.138 42.5792C146.75 42.5792 147.223 42.3818 147.559 41.987C147.895 41.5922 148.062 41.0198 148.062 40.2697V26.1167H153.125ZM170.154 43.2306H162.397L161.153 46.902H155.853L163.374 26.1167H169.236L176.757 46.902H171.398L170.154 43.2306ZM168.851 39.3222L166.275 31.7128L163.729 39.3222H168.851ZM191.629 36.2429C192.834 36.4995 193.801 37.1015 194.531 38.049C195.261 38.9768 195.627 40.0427 195.627 41.2468C195.627 42.9838 195.015 44.3656 193.791 45.392C192.587 46.3987 190.899 46.902 188.728 46.902H179.046V26.1167H188.402C190.514 26.1167 192.162 26.6003 193.347 27.5675C194.551 28.5348 195.153 29.8474 195.153 31.5055C195.153 32.7293 194.827 33.7459 194.176 34.5552C193.544 35.3645 192.695 35.9271 191.629 36.2429ZM184.109 34.5256H187.425C188.254 34.5256 188.886 34.3479 189.32 33.9926C189.774 33.6176 190.001 33.0748 190.001 32.3641C190.001 31.6535 189.774 31.1107 189.32 30.7357C188.886 30.3606 188.254 30.1731 187.425 30.1731H184.109V34.5256ZM187.84 42.816C188.688 42.816 189.34 42.6285 189.794 42.2535C190.267 41.8587 190.504 41.2961 190.504 40.5658C190.504 39.8354 190.258 39.263 189.764 38.8485C189.29 38.4339 188.629 38.2267 187.78 38.2267H184.109V42.816H187.84ZM198.001 36.5686C198.001 34.5552 198.455 32.7491 199.363 31.1502C200.271 29.5316 201.504 28.2683 203.064 27.3603C204.643 26.4523 206.39 25.9983 208.305 25.9983C210.555 25.9983 212.519 26.5411 214.197 27.6268C215.874 28.7124 217.098 30.2521 217.868 32.2457H214.641C214.068 31.0021 213.239 30.0448 212.154 29.3737C211.088 28.7025 209.805 28.367 208.305 28.367C206.864 28.367 205.571 28.7025 204.426 29.3737C203.281 30.0448 202.383 31.0021 201.731 32.2457C201.08 33.4695 200.754 34.9105 200.754 36.5686C200.754 38.2069 201.08 39.6479 201.731 40.8915C202.383 42.1153 203.281 43.0628 204.426 43.7339C205.571 44.405 206.864 44.7406 208.305 44.7406C209.805 44.7406 211.088 44.4149 212.154 43.7635C213.239 43.0924 214.068 42.135 214.641 40.8915H217.868C217.098 42.8654 215.874 44.3952 214.197 45.4808C212.519 46.5467 210.555 47.0797 208.305 47.0797C206.39 47.0797 204.643 46.6356 203.064 45.7473C201.504 44.8393 200.271 43.5859 199.363 41.987C198.455 40.3881 198.001 38.582 198.001 36.5686ZM224.573 44.711H231.798V46.902H221.879V26.2648H224.573V44.711ZM246.858 42.3127H237.857L236.199 46.902H233.356L240.818 26.3832H243.927L251.359 46.902H248.516L246.858 42.3127ZM246.088 40.1216L242.358 29.6994L238.627 40.1216H246.088ZM261.154 47.1093C259.792 47.1093 258.568 46.8724 257.483 46.3987C256.417 45.9052 255.578 45.2341 254.966 44.3853C254.354 43.5168 254.038 42.5199 254.018 41.3948H256.89C256.989 42.362 257.384 43.1812 258.075 43.8523C258.785 44.5037 259.812 44.8294 261.154 44.8294C262.437 44.8294 263.444 44.5136 264.174 43.8819C264.924 43.2306 265.299 42.4015 265.299 41.3948C265.299 40.6052 265.082 39.9637 264.648 39.4702C264.214 38.9768 263.671 38.6017 263.019 38.3451C262.368 38.0885 261.49 37.8122 260.384 37.5161C259.022 37.1608 257.927 36.8055 257.098 36.4502C256.288 36.0949 255.588 35.5422 254.995 34.7921C254.423 34.0222 254.137 32.9958 254.137 31.7128C254.137 30.5876 254.423 29.5908 254.995 28.7223C255.568 27.8538 256.367 27.1826 257.394 26.7089C258.44 26.2351 259.634 25.9983 260.976 25.9983C262.911 25.9983 264.49 26.4819 265.714 27.4491C266.957 28.4163 267.658 29.6994 267.816 31.2982H264.855C264.756 30.5087 264.342 29.8178 263.612 29.2256C262.881 28.6137 261.914 28.3078 260.71 28.3078C259.585 28.3078 258.667 28.6038 257.956 29.196C257.246 29.7685 256.89 30.5778 256.89 31.6239C256.89 32.374 257.098 32.9859 257.512 33.4597C257.946 33.9334 258.469 34.2986 259.081 34.5552C259.713 34.7921 260.591 35.0684 261.717 35.3842C263.079 35.7593 264.174 36.1343 265.003 36.5094C265.832 36.8647 266.543 37.4272 267.135 38.1971C267.727 38.9472 268.023 39.9736 268.023 41.2764C268.023 42.2831 267.757 43.2306 267.224 44.1188C266.691 45.0071 265.901 45.7276 264.855 46.2803C263.809 46.833 262.575 47.1093 261.154 47.1093ZM278.532 47.1093C277.17 47.1093 275.946 46.8724 274.86 46.3987C273.794 45.9052 272.955 45.2341 272.344 44.3853C271.732 43.5168 271.416 42.5199 271.396 41.3948H274.268C274.367 42.362 274.762 43.1812 275.452 43.8523C276.163 44.5037 277.19 44.8294 278.532 44.8294C279.815 44.8294 280.822 44.5136 281.552 43.8819C282.302 43.2306 282.677 42.4015 282.677 41.3948C282.677 40.6052 282.46 39.9637 282.026 39.4702C281.591 38.9768 281.049 38.6017 280.397 38.3451C279.746 38.0885 278.867 37.8122 277.762 37.5161C276.4 37.1608 275.304 36.8055 274.475 36.4502C273.666 36.0949 272.965 35.5422 272.373 34.7921C271.801 34.0222 271.515 32.9958 271.515 31.7128C271.515 30.5876 271.801 29.5908 272.373 28.7223C272.946 27.8538 273.745 27.1826 274.771 26.7089C275.818 26.2351 277.012 25.9983 278.354 25.9983C280.289 25.9983 281.868 26.4819 283.092 27.4491C284.335 28.4163 285.036 29.6994 285.194 31.2982H282.233C282.134 30.5087 281.72 29.8178 280.989 29.2256C280.259 28.6137 279.292 28.3078 278.088 28.3078C276.963 28.3078 276.045 28.6038 275.334 29.196C274.623 29.7685 274.268 30.5778 274.268 31.6239C274.268 32.374 274.475 32.9859 274.89 33.4597C275.324 33.9334 275.847 34.2986 276.459 34.5552C277.091 34.7921 277.969 35.0684 279.094 35.3842C280.456 35.7593 281.552 36.1343 282.381 36.5094C283.21 36.8647 283.921 37.4272 284.513 38.1971C285.105 38.9472 285.401 39.9736 285.401 41.2764C285.401 42.2831 285.135 43.2306 284.602 44.1188C284.069 45.0071 283.279 45.7276 282.233 46.2803C281.187 46.833 279.953 47.1093 278.532 47.1093ZM292.06 26.2648V46.902H289.366V26.2648H292.06ZM308.318 26.2648V28.4558H299.347V35.4138H306.631V37.6049H299.347V46.902H296.653V26.2648H308.318ZM314.267 26.2648V46.902H311.573V26.2648H314.267ZM321.554 28.4558V35.3546H329.074V37.5753H321.554V44.6814H329.962V46.902H318.859V26.2351H329.962V28.4558H321.554ZM340.464 26.2648C342.715 26.2648 344.659 26.6891 346.297 27.5379C347.955 28.367 349.219 29.5612 350.087 31.1206C350.976 32.68 351.42 34.5157 351.42 36.6278C351.42 38.7399 350.976 40.5756 350.087 42.135C349.219 43.6747 347.955 44.859 346.297 45.6881C344.659 46.4974 342.715 46.902 340.464 46.902H334.039V26.2648H340.464ZM340.464 44.6814C343.129 44.6814 345.162 43.9806 346.564 42.5792C347.965 41.1579 348.666 39.1742 348.666 36.6278C348.666 34.0617 347.955 32.0582 346.534 30.6172C345.133 29.1763 343.11 28.4558 340.464 28.4558H336.734V44.6814H340.464Z" fill="white"/>
</svg>
