<svg width="67" height="74" viewBox="0 0 67 74" fill="none" xmlns="http://www.w3.org/2000/svg">
<path d="M12.7502 61.6756C12.9198 61.6888 13.0852 61.7041 13.2554 61.7318C14.7805 61.9754 16.0989 63.6204 17.6853 62.7501C17.8814 62.2915 18.2082 62.1224 18.4038 61.6811C20.2421 61.5663 23.3031 61.6322 24.4023 63.4075C26.2175 66.343 26.1306 62.7374 27.5021 64.0011C27.5225 64.326 26.9938 68.623 28.6063 66.9937C28.8847 66.7122 28.5348 66.2913 29.065 66.2233C29.6646 66.1457 29.5737 67.1857 29.5579 67.5463C29.5017 68.794 28.0077 69.4314 27.9602 70.6538C27.9496 70.8738 28.9107 71.5705 29.0447 71.715C29.5937 72.3239 29.7407 72.9854 29.7852 73.7888C31.2087 73.8934 31.4288 73.4726 31.3763 72.1084C31.3312 70.9306 32.9386 70.2303 33.5143 69.2895C34.1838 68.1934 34.6794 66.8297 36.1855 67.5008C37.5012 68.0846 38.7444 68.4038 40.1971 68.3277C39.9151 66.2182 44.609 66.5221 44.8061 68.9325C45.5846 68.9887 46.3716 68.9697 47.1353 69.1699C48.4729 69.5239 47.81 69.0234 48.6844 68.413C48.7257 68.1219 48.8581 67.8737 48.9311 67.5824C49.0736 67.8129 49.2998 67.913 49.3985 68.2041C49.9016 67.9952 49.6411 67.3955 50.0523 67.1049C50.4516 66.8205 51.0503 67.0314 51.4926 66.8849C51.6504 66.446 52.0345 66.1452 52.0687 65.6958C50.8674 65.8434 51.036 63.879 51.1509 63.1926C51.2362 62.6456 51.4594 62.193 51.6233 61.6561C51.9405 60.6182 51.7255 59.3419 52.1035 58.3653C52.8639 58.6615 55.4847 60.1646 55.6282 58.8286C55.7717 57.5083 56.877 57.0854 57.2795 58.6702C57.4169 59.2137 57.4052 59.9032 57.776 60.3629C58.4721 61.2209 58.8674 60.1285 59.3205 59.7714C60.1229 59.1396 60.628 59.3025 60.6209 58.0977C60.6096 56.9878 60.2675 56.8059 59.2301 56.7185C59.1973 56.5786 59.2046 56.4458 59.2332 56.3074C60.0372 56.4295 60.0617 55.6486 60.5944 55.2961C61.128 54.9396 61.9372 54.7879 62.571 54.7456C62.5311 54.0964 62.7314 53.4543 62.6977 52.7811C61.8401 52.7102 61.8789 52.251 62.0786 51.5492C62.4003 51.1029 63.0118 51.1866 63.6078 51.2279C63.5956 51.8777 64.3888 51.9563 64.8398 52.1029C65.6938 52.3761 65.6908 53.2322 66.0794 53.8962C66.843 54.0034 66.5744 50.3857 66.5493 49.9112C66.5034 49.0572 66.9851 47.8997 66.1362 47.2798C65.3583 46.7093 64.7479 45.701 64.3312 44.6498C64.2162 44.7561 64.0983 44.8454 63.9751 44.8935C63.968 44.943 63.9644 44.9742 63.9547 44.945C63.9643 44.9741 63.968 44.943 63.9751 44.8935C63.782 44.9721 63.5798 44.9742 63.372 44.8689C63.541 44.9531 62.6686 43.8469 62.713 43.9389C62.5618 43.6252 62.7023 43.2743 62.6001 42.953C62.4995 42.6353 61.9627 42.5429 62.1491 42.0577C62.3478 41.5532 63.544 38.5564 64.2739 38.6463C64.399 38.6622 64.8071 38.9012 65.2157 39.1519C65.0743 38.9901 64.9286 38.8394 64.7709 38.7162C63.2211 37.5017 61.0918 37.9241 59.7894 36.002C59.2393 35.1879 59.5942 34.6061 59.9865 33.8375C60.3528 33.1341 59.8936 31.7244 59.9064 30.9204C59.7833 30.9333 59.6168 30.875 59.4922 30.8837C59.4543 29.3264 58.6576 29.9761 57.5951 29.7892C56.5624 29.6063 56.1082 27.719 55.5536 26.9452C54.621 25.6433 54.2445 25.8736 53.9529 27.2164C53.6112 28.7783 51.657 28.3165 50.4725 28.2282C50.4046 27.0111 50.6845 25.7306 50.2932 24.5441C49.9255 23.4276 49.0868 22.5711 48.3958 21.6507C47.9703 21.0847 43.8485 16.0772 47.2057 16.7242C47.3426 16.1385 45.2157 13.2175 44.7621 12.749C43.946 11.9124 42.6348 11.5196 41.5746 11.1023C40.7017 10.7602 39.5882 11.1161 38.8011 10.5349C39.1055 10.0191 39.7639 10.1809 40.2179 9.95162C41.0438 9.53275 40.5576 8.34021 40.4678 7.67975C40.2251 5.95385 41.9764 6.49784 43.1789 6.43609C43.0435 6.44318 43.848 4.5223 43.9256 4.38125C44.3685 3.55538 45.487 3.41338 46.3307 3.35155C46.414 2.42206 45.3633 1.5966 44.9032 0.900451C44.8275 0.790069 44.6749 0.43772 44.5011 0.0378148C44.0589 0.0218385 43.8908 -0.204403 43.5916 0.671056C43.2896 1.54967 43.4627 1.77022 42.456 1.87957C41.695 1.96177 40.8901 1.83264 40.1265 1.87347C40.1572 2.77748 38.9803 2.60896 39.0692 3.72145C37.9006 3.7832 37.4368 3.40624 36.4112 3.06708C36.3718 3.05476 36.3279 3.05069 36.2891 3.04102C36.1276 3.95993 35.8233 4.95125 35.8064 5.76587C35.7891 6.60104 35.6211 6.78649 34.9785 7.2952C34.5143 7.66402 33.9483 7.88827 33.7466 8.51388C32.1117 8.60069 30.4997 8.60733 28.8525 8.59148C28.1154 8.58438 26.9095 8.33864 26.3012 8.77842C25.7608 9.17222 25.841 10.1779 25.0528 10.2398C25.0615 12.1807 23.4731 11.4033 22.1113 11.8639C21.3656 12.1173 20.9514 12.6736 20.4275 13.268C19.861 13.9121 20.0203 14.0219 19.7369 14.8443C19.3487 15.974 18.9187 14.9352 18.272 15.5163C17.7178 16.0144 18.9401 17.7352 19.1944 18.1882C19.7497 19.2062 20.0842 20.2262 19.9861 21.4003C19.6853 21.5107 19.4018 21.6646 19.1474 21.8615C20.4937 21.8469 20.7461 22.045 20.6343 23.4108C20.6117 23.7259 19.7793 23.9185 19.5663 24.09C19.1526 24.4283 18.6352 25.0421 18.4115 25.5223C18.153 26.0836 16.9266 30.5961 18.2179 30.6615C18.2015 30.7821 18.2399 30.9491 18.249 31.0743C18.605 31.0942 18.9759 31.0998 19.3324 31.0855C19.2925 30.9082 19.4111 30.6309 19.3691 30.4516C19.8911 30.251 20.6128 30.2575 21.1246 30.4715C21.1379 30.7765 21.2636 31.4506 21.025 31.6825C20.7232 31.9787 20.15 31.6524 19.7894 31.7724C19.2139 31.964 19.4335 32.1524 19.081 32.5478C18.6775 33.0014 18.6618 32.84 18.0989 33.0932C17.5992 33.3185 17.635 33.2368 17.2791 33.7475C17.0186 34.1239 16.9374 34.345 16.6309 34.6372C15.9485 35.2855 15.3633 35.9949 14.7166 36.736C14.0424 37.5062 13.4612 37.4577 12.575 37.826C11.3803 38.3235 11.9524 38.8613 11.5571 39.8199C11.2547 40.5513 10.345 40.601 9.83633 41.2495C9.17283 42.0929 9.11968 42.3467 7.9654 42.3615C7.9337 42.8238 7.95158 43.308 7.91888 43.7718C7.15829 43.9357 6.94383 45.1038 6.15112 45.2407C6.13888 45.3015 6.12668 45.3648 6.1107 45.4231C5.29964 45.4741 3.47366 45.186 3.68006 46.516C4.25318 46.4287 4.69844 46.8271 4.52992 47.4146C4.51718 47.464 3.17542 47.6898 2.99205 47.8655C2.07625 48.7322 3.0064 49.5448 3.83526 49.8978C3.90527 51.2518 3.71019 52.4312 3.47577 53.658C3.27663 54.6882 3.47362 54.752 2.48184 55.2347C1.61614 55.6556 0.912764 56.01 0.391771 56.8008C0.239976 57.0331 0.115984 57.2656 0 57.4903C1.13444 58.0649 1.98226 58.8396 1.9306 59.8546L12.7502 61.6756Z" fill="#FB295B"/>
<path d="M41.0999 48.3668H31.1191L29.3592 52.4307C28.9317 53.4303 28.7187 54.175 28.7187 54.6663C28.7187 55.0627 28.9037 55.4109 29.2753 55.711C29.6484 56.0118 30.4607 56.2023 31.713 56.2831V56.9951H23.5822V56.2831C24.6595 56.0927 25.3576 55.847 25.6747 55.5462C26.323 54.943 27.0366 53.707 27.8139 51.8368L36.8931 30.6096H37.5585L46.5443 52.0762C47.2571 53.8034 47.9101 54.9205 48.5032 55.428C49.0978 55.9341 49.9187 56.2194 50.9658 56.2831V56.9951H40.7921V56.2831C41.8221 56.2357 42.5155 56.0655 42.8722 55.7732C43.2283 55.4793 43.407 55.1257 43.407 54.7129C43.407 54.1595 43.1529 53.2811 42.6453 52.0762L41.0999 48.3668ZM40.5558 46.9645L36.181 36.5297L31.713 46.9645H40.5558Z" fill="white"/>
<path d="M45.1639 23.7764L45.1875 24.1243L45.7378 32.2427L45.7648 32.641H45.3656H44.8152H44.537L44.4576 32.3743C43.75 29.9962 42.7477 28.331 41.4802 27.3241C40.2032 26.3105 38.6657 25.7975 36.8492 25.7975C35.3321 25.7975 33.9674 26.1835 32.7446 26.9528L32.7445 26.9529C31.5415 27.7092 30.5769 28.9226 29.8651 30.6296L45.1639 23.7764ZM45.1639 23.7764H44.8152M45.1639 23.7764H44.8152M44.8152 23.7764H44.1996H43.9032L43.8361 24.0651C43.7133 24.5938 43.5255 24.9653 43.2948 25.2107C43.1291 25.3748 42.9461 25.4492 42.7258 25.4492C42.6909 25.4492 42.6017 25.4351 42.4387 25.3738C42.2829 25.3152 42.0855 25.2237 41.844 25.0951L41.8441 25.095L41.8376 25.0917C40.1169 24.2178 38.3571 23.7764 36.5631 23.7764C34.2842 23.7764 32.1759 24.3439 30.2456 25.479L30.2455 25.479C28.3136 26.616 26.7958 28.2158 25.6938 30.2695L25.6938 30.2696C24.5937 32.3211 24.0451 34.5664 24.0451 37.0003C24.0451 40.037 24.8723 42.691 26.5371 44.9454L26.5373 44.9457C28.7861 47.9849 31.9682 49.4997 36.0346 49.4997C38.2933 49.4997 40.261 48.991 41.9218 47.9571C43.5798 46.9256 45.0158 45.3214 46.2402 43.1703L46.4156 42.862L46.1167 42.6712L45.5663 42.3198L45.2697 42.1305L45.0633 42.4155C43.6513 44.3661 42.3887 45.627 41.2785 46.248C40.1604 46.8718 38.8566 47.1895 37.356 47.1895C35.6277 47.1895 34.1089 46.7834 32.7866 45.9784L32.7864 45.9783C31.4694 45.1773 30.4771 44.025 29.8093 42.5059L29.8093 42.5059M44.8152 23.7764L29.8093 42.5059M29.8093 42.5059C29.1381 40.98 28.7961 39.1624 28.7961 37.0438C28.7961 34.4642 29.1573 32.3308 29.865 30.6299L29.8093 42.5059Z" fill="white" stroke="#FB295B" stroke-width="0.746232"/>
</svg>
