<svg width="19" height="18" viewBox="0 0 19 18" fill="none" xmlns="http://www.w3.org/2000/svg">
<path d="M17.9766 16.46L13.9766 12.455C13.847 12.3224 13.7027 12.205 13.5466 12.105L12.5466 11.415C13.5456 10.1772 14.0942 8.63667 14.1026 7.04606C14.111 5.45545 13.5785 3.90922 12.5926 2.661C11.6078 1.41375 10.2277 0.538995 8.67943 0.180744C7.13119 -0.177508 5.5071 0.00210184 4.07455 0.690004C2.64317 1.37972 1.48851 2.53519 0.799799 3.96706C0.111087 5.39893 -0.0708308 7.02228 0.283857 8.57107C0.638546 10.1199 1.5088 11.5023 2.75202 12.4917C3.99523 13.4811 5.53766 14.019 7.12655 14.017C8.71455 14.017 10.2566 13.477 11.4966 12.486L12.2466 13.486C12.3356 13.616 12.4366 13.736 12.5466 13.847L16.5466 17.852C16.5929 17.8991 16.6482 17.9365 16.7091 17.9621C16.7701 17.9876 16.8355 18.0007 16.9016 18.0007C16.9676 18.0007 17.0331 17.9876 17.094 17.9621C17.155 17.9365 17.2102 17.8991 17.2566 17.852L17.9566 17.152C18.0483 17.0614 18.1016 16.9389 18.1053 16.81C18.109 16.6811 18.0629 16.5558 17.9766 16.46ZM7.12655 12.015C6.30368 12.0148 5.49356 11.8117 4.76797 11.4235C4.04238 11.0354 3.42372 10.4743 2.96682 9.78994C2.50991 9.10558 2.22887 8.31907 2.14858 7.50013C2.0683 6.68118 2.19125 5.85507 2.50655 5.095C2.88453 4.1805 3.52521 3.39862 4.34756 2.84825C5.16992 2.29787 6.13702 2.00372 7.12655 2.003C9.88755 2.003 12.1266 4.244 12.1266 7.009C12.1263 7.99861 11.833 8.96599 11.2836 9.78909C10.7342 10.6122 9.95336 11.2542 9.03955 11.634C8.43312 11.8855 7.78306 12.0149 7.12655 12.015Z" fill="white"/>
</svg>
