<svg width="18" height="19" viewBox="0 0 18 19" fill="none" xmlns="http://www.w3.org/2000/svg">
<path d="M17.9701 1.81237L11.9801 18.5344C11.945 18.6307 11.8813 18.7139 11.7974 18.7727C11.7135 18.8315 11.6135 18.8632 11.5111 18.8634H11.3511C11.255 18.8632 11.161 18.8358 11.0798 18.7845C10.9986 18.7332 10.9335 18.66 10.8921 18.5734L8.53708 13.5824C8.36794 13.2226 8.30986 12.8206 8.37024 12.4277C8.43062 12.0348 8.60673 11.6687 8.87608 11.3764L11.8711 8.10137C11.9591 8.00848 12.0082 7.88536 12.0082 7.75737C12.0082 7.62938 11.9591 7.50626 11.8711 7.41337L11.4911 7.03337C11.3981 6.94502 11.2748 6.89575 11.1466 6.89575C11.0183 6.89575 10.895 6.94502 10.8021 7.03337L7.52808 10.0284C7.23581 10.2979 6.86984 10.4742 6.47692 10.5347C6.08399 10.5953 5.68193 10.5374 5.32208 10.3684L0.332077 8.01137C0.23809 7.976 0.156637 7.91367 0.0979311 7.83219C0.0392255 7.75072 0.00588046 7.65372 0.00207679 7.55337V7.39337C-0.0063101 7.28409 0.0214441 7.17508 0.0810692 7.08311C0.140694 6.99114 0.228886 6.92131 0.332077 6.88437L17.0521 0.89437C17.1401 0.862372 17.2353 0.855717 17.3268 0.875164C17.4184 0.894611 17.5027 0.939379 17.5701 1.00437L17.8301 1.26437C17.9062 1.33098 17.9603 1.41911 17.9853 1.51713C18.0103 1.61515 18.005 1.71844 17.9701 1.81337" fill="white"/>
</svg>
