<svg width="50" height="50" viewBox="0 0 50 50" fill="none" xmlns="http://www.w3.org/2000/svg">
<path d="M24.9959 0.520386C11.1928 0.520386 -0.000976562 11.7579 -0.000976562 25.6204C-0.000976562 36.7079 7.16152 46.1141 17.099 49.436C18.349 49.6673 18.8053 48.8923 18.8053 48.2266C18.8053 47.6298 18.7834 46.0516 18.7709 43.9579C11.8178 45.4735 10.349 40.5923 10.349 40.5923C9.21465 37.6923 7.57402 36.9204 7.57402 36.9204C5.30215 35.3641 7.74277 35.3954 7.74277 35.3954C10.2521 35.5735 11.5709 37.9829 11.5709 37.9829C13.8021 41.8173 17.424 40.711 18.849 40.0673C19.074 38.4454 19.7209 37.3391 20.4365 36.711C14.8865 36.0766 9.04902 33.9235 9.04902 24.3079C9.04902 21.5673 10.024 19.3266 11.624 17.5704C11.3646 16.936 10.5084 14.3829 11.8678 10.9298C11.8678 10.9298 13.9678 10.2548 18.7428 13.5016C20.7365 12.9454 22.874 12.6673 25.0021 12.6579C27.124 12.6704 29.2646 12.9454 31.2615 13.5048C36.0334 10.2579 38.1303 10.9329 38.1303 10.9329C39.4928 14.3891 38.6365 16.9391 38.3803 17.5735C39.9834 19.3298 40.949 21.5704 40.949 24.311C40.949 33.9516 35.1053 36.0735 29.5365 36.6954C30.4334 37.4704 31.2334 39.0016 31.2334 41.3423C31.2334 44.6985 31.2021 47.4048 31.2021 48.2266C31.2021 48.8985 31.6521 49.6798 32.9209 49.4329C42.8428 46.1079 49.999 36.7048 49.999 25.6204C49.999 11.7579 38.8053 0.520386 24.9959 0.520386Z" fill="#5C6BC0"/>
</svg>
