<svg width="16" height="26" viewBox="0 0 16 26" fill="none" xmlns="http://www.w3.org/2000/svg">
<path d="M15.2865 23.3872C15.3554 23.2874 15.4 23.1728 15.4168 23.0526C15.4335 22.9325 15.422 22.8101 15.383 22.6952L14.2501 19.3598C14.2148 19.2559 14.158 19.1606 14.0834 19.0802C14.0087 18.9999 13.9179 18.9362 13.8169 18.8934C13.7159 18.8506 13.607 18.8296 13.4973 18.8318C13.3876 18.8341 13.2796 18.8595 13.1805 18.9064C12.5912 19.1855 11.0246 19.4615 10.5433 18.9645C9.80769 18.2092 10.2538 15.2193 10.1698 11.2106H14.0893C14.2956 11.2106 14.4936 11.1286 14.6395 10.9827C14.7854 10.8367 14.8674 10.6388 14.8674 10.4325V6.89473C14.8674 6.68836 14.7854 6.49045 14.6395 6.34453C14.4936 6.19861 14.2956 6.11663 14.0893 6.11663H10.1656V0.939715C10.1656 0.733352 10.0836 0.53544 9.93772 0.389519C9.7918 0.243599 9.59389 0.161621 9.38752 0.161621H5.94316C5.14328 0.161621 4.9887 0.949052 4.85279 1.64415C4.58513 3.00322 4.08819 5.53462 0.896965 6.68205C0.745862 6.73619 0.615201 6.83574 0.522891 6.96706C0.430582 7.09837 0.381143 7.25502 0.381348 7.41553V10.4335C0.381348 10.863 0.729934 11.2116 1.15944 11.2116H2.74779V18.0713C2.74779 26.1074 13.2977 26.2693 15.2865 23.3872ZM4.30398 18.0713V10.4335C4.30398 10.2271 4.222 10.0292 4.07608 9.8833C3.93016 9.73738 3.73225 9.6554 3.52588 9.6554H1.93754V7.94463C4.86317 6.68516 5.85601 4.51998 6.4235 1.71885H8.60839V6.89576C8.60839 7.32527 8.95698 7.67386 9.38649 7.67386H13.3102V9.6554H9.36677C9.2621 9.65546 9.15851 9.67664 9.06221 9.71768C8.96592 9.75871 8.87889 9.81875 8.80634 9.89421C8.73379 9.96966 8.67721 10.059 8.63999 10.1568C8.60277 10.2546 8.58567 10.359 8.58972 10.4636C8.78683 15.6135 8.01704 18.6035 9.42798 20.0507C10.3067 20.9544 11.8017 20.9004 13.0269 20.5975L13.7438 22.7087C10.6076 24.6021 4.30398 23.3208 4.30398 18.0713Z" fill="white"/>
</svg>
