<svg width="12" height="14" viewBox="0 0 12 14" fill="none" xmlns="http://www.w3.org/2000/svg">
<path d="M6.00098 7C6.79663 7 7.55969 6.68393 8.1223 6.12132C8.68491 5.55871 9.00098 4.79565 9.00098 4C9.00098 3.20435 8.68491 2.44129 8.1223 1.87868C7.55969 1.31607 6.79663 1 6.00098 1C5.20533 1 4.44227 1.31607 3.87966 1.87868C3.31705 2.44129 3.00098 3.20435 3.00098 4C3.00098 4.79565 3.31705 5.55871 3.87966 6.12132C4.44227 6.68393 5.20533 7 6.00098 7ZM6.00098 8C4.94011 8 3.92269 7.57857 3.17255 6.82843C2.4224 6.07828 2.00098 5.06087 2.00098 4C2.00098 2.93913 2.4224 1.92172 3.17255 1.17157C3.92269 0.421427 4.94011 0 6.00098 0C7.06184 0 8.07926 0.421427 8.8294 1.17157C9.57955 1.92172 10.001 2.93913 10.001 4C10.001 5.06087 9.57955 6.07828 8.8294 6.82843C8.07926 7.57857 7.06184 8 6.00098 8ZM11.001 13V11.5C11.001 11.1022 10.8429 10.7206 10.5616 10.4393C10.2803 10.158 9.8988 10 9.50098 10H2.50098C2.10315 10 1.72162 10.158 1.44032 10.4393C1.15901 10.7206 1.00098 11.1022 1.00098 11.5V13C1.00098 13.1326 0.948298 13.2598 0.85453 13.3536C0.760762 13.4473 0.633585 13.5 0.500977 13.5C0.368368 13.5 0.241191 13.4473 0.147423 13.3536C0.0536551 13.2598 0.000976562 13.1326 0.000976562 13V11.5C0.000976562 10.837 0.264369 10.2011 0.73321 9.73223C1.20205 9.26339 1.83794 9 2.50098 9H9.50098C10.164 9 10.7999 9.26339 11.2687 9.73223C11.7376 10.2011 12.001 10.837 12.001 11.5V13C12.001 13.1326 11.9483 13.2598 11.8545 13.3536C11.7608 13.4473 11.6336 13.5 11.501 13.5C11.3684 13.5 11.2412 13.4473 11.1474 13.3536C11.0537 13.2598 11.001 13.1326 11.001 13Z" fill="white"/>
</svg>
