<svg width="24" height="23" viewBox="0 0 24 23" fill="none" xmlns="http://www.w3.org/2000/svg">
<path d="M23.582 22.5779L19.1241 16.6362C17.4643 14.4246 15.8032 12.2148 14.1408 10.0067C14.084 9.93018 14.092 9.89322 14.154 9.82854C14.5271 9.43075 14.899 9.03121 15.2695 8.6299L22.1299 1.25065C22.2751 1.09621 22.4177 0.939116 22.5695 0.775426C22.5405 0.768826 22.5299 0.764866 22.5193 0.764866C21.8734 0.764866 21.2292 0.763985 20.5867 0.762225C20.5234 0.762225 20.4877 0.792587 20.4495 0.83351L17.4806 4.0281L13.2326 8.60218C13.1666 8.67346 13.1402 8.66818 13.0847 8.59426C12.8454 8.26952 12.6033 7.9461 12.3587 7.624C10.6619 5.3649 8.96564 3.10493 7.26978 0.84407C7.21962 0.779386 7.17077 0.762225 7.09553 0.762225L0.335401 0.764866C0.297118 0.764866 0.258836 0.752985 0.221874 0.774106C0.221874 0.813709 0.252236 0.83483 0.272037 0.861231L3.92074 5.72309L9.22086 12.7802C9.26838 12.8423 9.26442 12.8766 9.21294 12.9307L4.41973 18.0856L0.66278 22.1251C0.49513 22.3059 0.339361 22.5 0.147949 22.661V22.6835C0.187552 22.7046 0.229794 22.694 0.272037 22.694H2.15711C2.18398 22.6981 2.21146 22.6946 2.23643 22.6839C2.2614 22.6732 2.28286 22.6556 2.29836 22.6333C2.40397 22.5013 2.52673 22.3838 2.64158 22.2597L3.78741 21.0255L5.23158 19.4717L6.37741 18.2374L7.82289 16.685C8.167 16.3128 8.5133 15.9414 8.8618 15.5709C8.97884 15.4494 9.09413 15.3262 9.20766 15.2013C9.50996 14.862 9.8281 14.5386 10.1291 14.198C10.1766 14.1452 10.2162 14.1478 10.2598 14.2059L10.4921 14.5227C11.3176 15.6184 12.1422 16.7163 12.9659 17.8163L16.5618 22.6056C16.5988 22.6571 16.6384 22.702 16.711 22.694H23.6124C23.6353 22.694 23.6471 22.6826 23.648 22.6597L23.5833 22.5792M20.4943 21.172C19.5104 21.172 18.527 21.1729 17.544 21.1746C17.5066 21.1774 17.4692 21.1701 17.4356 21.1537C17.4019 21.1372 17.3733 21.1121 17.3526 21.0809C13.8799 16.4509 10.4059 11.8227 6.93052 7.1963L3.29502 2.35292L3.24354 2.27768H3.41119L6.32856 2.27636C6.40777 2.27636 6.45925 2.29748 6.50809 2.36348L15.9665 14.965L20.5445 21.0611C20.5665 21.0901 20.5885 21.1209 20.6105 21.1535C20.5696 21.1825 20.5313 21.172 20.4943 21.172Z" fill="white"/>
</svg>
