<svg width="32" height="33" viewBox="0 0 32 33" fill="none" xmlns="http://www.w3.org/2000/svg">
<path d="M29.5726 14.4737C29.5717 14.473 29.5711 14.4721 29.5704 14.4715L17.9201 2.8216C17.4235 2.32479 16.7633 2.05133 16.061 2.05133C15.3587 2.05133 14.6985 2.32479 14.2017 2.8216L2.55747 14.4656C2.55355 14.4695 2.54941 14.4737 2.54571 14.4776C1.52595 15.5032 1.52769 17.1673 2.55072 18.1903C3.01811 18.6579 3.63519 18.9286 4.29521 18.9571C4.32223 18.9597 4.34924 18.961 4.37648 18.961H4.8406V27.5344C4.8406 29.2312 6.2212 30.6116 7.91797 30.6116H12.4759C12.9381 30.6116 13.3127 30.2368 13.3127 29.7749V23.0532C13.3127 22.279 13.9426 21.6492 14.7168 21.6492H17.4052C18.1794 21.6492 18.8091 22.279 18.8091 23.0532V29.7749C18.8091 30.2368 19.1837 30.6116 19.6459 30.6116H24.2038C25.9008 30.6116 27.2812 29.2312 27.2812 27.5344V18.961H27.7118C28.4138 18.961 29.0741 18.6876 29.5711 18.1906C30.5952 17.166 30.5956 15.4989 29.5726 14.4737ZM28.3877 17.0074C28.2071 17.188 27.9669 17.2876 27.7118 17.2876H26.4445C25.9823 17.2876 25.6078 17.6622 25.6078 18.1243V27.5344C25.6078 28.3084 24.978 28.9381 24.2038 28.9381H20.4826V23.0532C20.4826 21.3564 19.1022 19.9758 17.4052 19.9758H14.7168C13.0198 19.9758 11.6392 21.3564 11.6392 23.0532V28.9381H7.91797C7.144 28.9381 6.51406 28.3084 6.51406 27.5344V18.1243C6.51406 17.6622 6.13949 17.2876 5.67733 17.2876H4.43183C4.41875 17.2867 4.4059 17.2861 4.39261 17.2858C4.14333 17.2815 3.90953 17.1826 3.73434 17.0072C3.36173 16.6346 3.36173 16.0281 3.73434 15.6553C3.73456 15.6553 3.73456 15.6551 3.73477 15.6549L3.73543 15.6542L15.3853 4.00478C15.5657 3.82414 15.8056 3.72478 16.061 3.72478C16.3162 3.72478 16.5561 3.82414 16.7367 4.00478L28.384 15.6518C28.3857 15.6536 28.3877 15.6553 28.3894 15.6571C28.7601 16.0303 28.7594 16.6354 28.3877 17.0074Z" fill="black"/>
</svg>
