<svg width="33" height="33" viewBox="0 0 33 33" fill="none" xmlns="http://www.w3.org/2000/svg">
<g clip-path="url(#clip0_74_1328)">
<path d="M27.1155 19.1579V14.63H24.8664C24.6705 13.9043 24.3833 13.216 24.0168 12.5789L25.6071 10.9886L22.4054 7.78682L20.815 9.37719C20.178 9.01069 19.4897 8.72351 18.764 8.52757V6.27838H14.236V8.52751C13.5103 8.72344 12.822 9.01063 12.185 9.37713L10.5946 7.78676L7.39284 10.9885L8.98321 12.5789C8.61671 13.2159 8.32952 13.9042 8.13359 14.6299H5.8844V19.1579H8.13352C8.32946 19.8836 8.61665 20.5719 8.98315 21.2089L7.39277 22.7993L10.5945 26.0011L12.1849 24.4107C12.822 24.7772 13.5102 25.0644 14.236 25.2603V27.5094H18.7639V25.2603C19.4896 25.0644 20.1779 24.7772 20.815 24.4107L22.4053 26.0011L25.6071 22.7993L24.0167 21.2089C24.3832 20.5719 24.6704 19.8836 24.8663 19.1579H27.1155V19.1579Z" stroke="black" stroke-width="1.5" stroke-miterlimit="10" stroke-linecap="round" stroke-linejoin="round"/>
<path d="M16.5 20.5852C18.5386 20.5852 20.1912 18.9326 20.1912 16.8939C20.1912 14.8553 18.5386 13.2027 16.5 13.2027C14.4613 13.2027 12.8087 14.8553 12.8087 16.8939C12.8087 18.9326 14.4613 20.5852 16.5 20.5852Z" stroke="black" stroke-width="1.5" stroke-miterlimit="10" stroke-linecap="round" stroke-linejoin="round"/>
<path d="M30.1262 10.4677C31.0475 12.4164 31.5625 14.5952 31.5625 16.8939C31.5625 25.2127 24.8187 31.9564 16.5 31.9564C14.2012 31.9564 12.0225 31.4414 10.0737 30.5202" stroke="black" stroke-width="1.5" stroke-miterlimit="10" stroke-linecap="round" stroke-linejoin="round"/>
<path d="M2.87375 23.3202C1.9525 21.3714 1.4375 19.1927 1.4375 16.8939C1.4375 8.57517 8.18125 1.83142 16.5 1.83142C18.7987 1.83142 20.9775 2.34642 22.9263 3.26767" stroke="black" stroke-width="1.5" stroke-miterlimit="10" stroke-linecap="round" stroke-linejoin="round"/>
<path d="M28.6874 6.8941C29.8955 6.8941 30.8749 5.91473 30.8749 4.7066C30.8749 3.49848 29.8955 2.5191 28.6874 2.5191C27.4793 2.5191 26.4999 3.49848 26.4999 4.7066C26.4999 5.91473 27.4793 6.8941 28.6874 6.8941Z" stroke="black" stroke-width="1.5" stroke-miterlimit="10" stroke-linecap="round" stroke-linejoin="round"/>
<path d="M4.31274 31.2687C5.52087 31.2687 6.50024 30.2894 6.50024 29.0812C6.50024 27.8731 5.52087 26.8937 4.31274 26.8937C3.10462 26.8937 2.12524 27.8731 2.12524 29.0812C2.12524 30.2894 3.10462 31.2687 4.31274 31.2687Z" stroke="black" stroke-width="1.5" stroke-miterlimit="10" stroke-linecap="round" stroke-linejoin="round"/>
</g>
<defs>
<clipPath id="clip0_74_1328">
<rect width="32" height="32" fill="white" transform="translate(0.5 0.893921)"/>
</clipPath>
</defs>
</svg>
